<svg width="30" height="24" viewBox="0 0 30 24" fill="none" xmlns="http://www.w3.org/2000/svg">
<circle cx="6.99935" cy="17.3333" r="5.33333" stroke="#3174CD" stroke-width="2" stroke-linecap="round" stroke-linejoin="round"/>
<circle cx="22.9993" cy="17.3333" r="5.33333" stroke="#3174CD" stroke-width="2" stroke-linecap="round" stroke-linejoin="round"/>
<path d="M7 17.3333H12.8274C13.307 17.3333 13.7496 17.0758 13.9865 16.6589L19.6667 6.66663" stroke="#3174CD" stroke-width="2" stroke-linecap="round" stroke-linejoin="round"/>
<path d="M14.9993 13.3334L8.33268 5.33337M8.33268 5.33337H5.66602M8.33268 5.33337H10.9993" stroke="#3174CD" stroke-width="2" stroke-linecap="round" stroke-linejoin="round"/>
<path d="M19.0681 2.54168L18.1009 2.7958L18.1022 2.80068L19.0681 2.54168ZM22.0686 17.5924C22.2117 18.1258 22.7601 18.4423 23.2935 18.2993C23.8269 18.1562 24.1434 17.6078 24.0004 17.0744L23.0345 17.3334L22.0686 17.5924ZM24.7042 4.5684C24.854 5.09997 25.4064 5.40941 25.938 5.25956C26.4696 5.10971 26.779 4.55731 26.6292 4.02575L25.6667 4.29708L24.7042 4.5684ZM19.0681 2.54168L18.1022 2.80068L22.0686 17.5924L23.0345 17.3334L24.0004 17.0744L20.034 2.28268L19.0681 2.54168ZM20.0596 1.33337V0.333374C19.5933 0.333374 18.9005 0.403272 18.4239 0.924529C17.9005 1.49697 17.9547 2.23936 18.1009 2.79579L19.0681 2.54168L20.0353 2.28756C20.0158 2.21349 20.0066 2.1595 20.0026 2.12286C19.9986 2.08611 20.0006 2.0731 20 2.07867C19.9993 2.08522 19.9955 2.11253 19.9788 2.15192C19.9706 2.17146 19.9598 2.19245 19.9461 2.2139C19.9324 2.23539 19.9168 2.25563 19.8999 2.27414C19.8653 2.31198 19.8318 2.33529 19.8095 2.34791C19.7885 2.35981 19.7802 2.36076 19.7926 2.35722C19.8052 2.35364 19.8327 2.34728 19.8793 2.34204C19.9256 2.33684 19.985 2.33337 20.0596 2.33337V1.33337ZM25.6667 4.29708L26.6292 4.02575C26.1611 2.36532 25.1016 1.40087 23.8299 0.889819C22.6227 0.404705 21.2417 0.333374 20.0596 0.333374V1.33337V2.33337C21.2111 2.33337 22.2587 2.41386 23.0842 2.74558C23.8451 3.05137 24.4224 3.56877 24.7042 4.5684L25.6667 4.29708Z" fill="#3174CD"/>
</svg>
