<svg width="30" height="30" viewBox="0 0 30 30" fill="none" xmlns="http://www.w3.org/2000/svg">
<path d="M1.66602 27.2576C2.57966 28.6591 3.76073 28.6591 4.69667 27.2576C7.70582 22.6544 10.5721 30.5685 12.6967 27.3095C15.9367 22.4259 18.2671 30.8958 20.6967 27.2576C23.865 22.4109 25.8387 30.4367 28.3327 27.7789" stroke="#3174CD" stroke-width="2" stroke-linecap="round"/>
<path d="M3.76239 21.6666L1.76576 15.8609C1.40432 14.8099 2.06979 13.6666 3.04299 13.6666H26.8103C30.9356 13.6666 25.6584 21.6666 22.9949 21.6666" stroke="#3174CD" stroke-width="2" stroke-linecap="round" stroke-linejoin="round"/>
<path d="M23 13.6667L19.268 9.00163C18.2559 7.73648 16.7235 7 15.1033 7H9.66667C8.19391 7 7 8.19391 7 9.66667V13.6667" stroke="#3174CD" stroke-width="2" stroke-linecap="round" stroke-linejoin="round"/>
<path d="M12.3327 6.99996V2.99996C12.3327 2.26358 11.7357 1.66663 10.9993 1.66663H9.66602" stroke="#3174CD" stroke-width="2" stroke-linecap="round" stroke-linejoin="round"/>
</svg>
