<svg width="30" height="22" viewBox="0 0 30 22" fill="none" xmlns="http://www.w3.org/2000/svg">
<path d="M7 8.33293V1.66626M13.6667 8.33293V1.66626M20.3333 8.33293V2.33293" stroke="#3174CD" stroke-width="2" stroke-linecap="round" stroke-linejoin="round"/>
<path d="M5.68226 17.6663C3.78898 17.6663 2.84235 17.6663 2.25418 17.0805C1.66602 16.4947 1.66602 15.5519 1.66602 13.6663V5.66626C1.66602 3.78064 1.66602 2.83783 2.25418 2.25205C2.84235 1.66626 3.78898 1.66626 5.68226 1.66626H15.1282C19.7597 1.66626 22.0755 1.66626 23.8477 2.60792C25.1528 3.30136 26.2403 4.34026 26.9903 5.61007C28.0087 7.3344 28.1051 9.63885 28.298 14.2477C28.3499 15.49 28.3759 16.1111 28.1331 16.5812C27.9546 16.9268 27.6789 17.2131 27.3396 17.4051C26.8782 17.6663 26.254 17.6663 25.0055 17.6663H24.3327M10.9993 17.6663H18.9993" stroke="#3174CD" stroke-width="2" stroke-linecap="round" stroke-linejoin="round"/>
<path d="M27.666 11.9997C28.2183 11.9997 28.666 11.552 28.666 10.9997C28.666 10.4474 28.2183 9.99967 27.666 9.99967V11.9997ZM22.5173 10.701L21.9916 11.5516L22.5173 10.701ZM1.66602 7.33301C1.11373 7.33301 0.666016 7.78072 0.666016 8.33301C0.666016 8.88529 1.11373 9.33301 1.66602 9.33301V7.33301ZM20.7736 9.02771L21.5741 8.42836V8.42836L20.7736 9.02771ZM24.8048 10.9997V11.9997H27.666V10.9997V9.99967H24.8048V10.9997ZM24.8048 10.9997V9.99967C24.1829 9.99967 23.792 9.99844 23.4941 9.96764C23.2192 9.93922 23.1112 9.89245 23.043 9.85033L22.5173 10.701L21.9916 11.5516C22.4067 11.8082 22.841 11.9108 23.2884 11.957C23.7127 12.0009 24.2239 11.9997 24.8048 11.9997V10.9997ZM19.5086 8.33301V7.33301H1.66602V8.33301V9.33301H19.5086V8.33301ZM20.7736 9.02771L19.9732 9.62705C20.5093 10.3431 21.2834 11.114 21.9916 11.5516L22.5173 10.701L23.043 9.85033C22.6055 9.57991 22.0069 9.00641 21.5741 8.42836L20.7736 9.02771ZM19.5086 8.33301V9.33301C19.6205 9.33301 19.807 9.40508 19.9732 9.62705L20.7736 9.02771L21.5741 8.42836C21.135 7.84179 20.4068 7.33301 19.5086 7.33301V8.33301Z" fill="#3174CD"/>
<circle cx="8.33268" cy="17.6663" r="2.66667" stroke="#3174CD" stroke-width="2"/>
<circle cx="21.6667" cy="17.6663" r="2.66667" stroke="#3174CD" stroke-width="2"/>
</svg>
