<svg width="30" height="22" viewBox="0 0 30 22" fill="none" xmlns="http://www.w3.org/2000/svg">
<circle cx="24.9993" cy="16.9996" r="3.33333" stroke="#3174CD" stroke-width="2"/>
<circle cx="4.99935" cy="16.9996" r="3.33333" stroke="#3174CD" stroke-width="2"/>
<path d="M25.9791 5.49235C27.6878 7.57155 28.2813 9.54851 28.3319 10.5938C27.4385 10.1853 26.4354 9.95612 25.3755 9.95612C22.1153 9.95612 19.1885 12.124 18.4897 15.0119C18.3226 15.7022 18.239 16.0474 18.0576 16.1902C17.8762 16.3329 17.5837 16.3329 16.9986 16.3329H13.1601C12.5706 16.3329 12.2758 16.3329 12.0937 16.1882C11.9115 16.0435 11.8318 15.6994 11.6722 15.0113C11.0113 12.1606 8.3283 9.68273 5.53532 9.89272C5.25387 9.91388 5.11314 9.92446 5.01661 9.90292C4.92007 9.88138 4.82287 9.82648 4.62848 9.71669C4.06731 9.39975 3.49349 9.09879 2.94325 8.76316C2.17667 8.29557 1.69688 7.47357 1.66673 6.57614C1.64956 6.06536 1.94331 5.55779 2.5367 5.69743L11.0976 7.71206C11.7407 7.8634 12.0622 7.93907 12.3385 7.88756C12.6148 7.83605 12.9535 7.6044 13.631 7.14112C15.3487 5.9665 18.0709 4.85699 20.7847 5.83722C21.5275 6.10556 21.899 6.23972 22.1106 6.24643C22.3222 6.25314 22.6323 6.16288 23.2525 5.98235C24.2568 5.69006 25.2021 5.53838 25.9791 5.49235ZM25.9791 5.49235C24.9081 4.18907 23.399 2.84562 21.3109 1.66626" stroke="#3174CD" stroke-width="2" stroke-linecap="round" stroke-linejoin="round"/>
</svg>
