<svg width="30" height="26" viewBox="0 0 30 26" fill="none" xmlns="http://www.w3.org/2000/svg">
<path d="M2.33398 13L5.00065 14.3333" stroke="#3174CD" stroke-width="2" stroke-linecap="round" stroke-linejoin="round"/>
<path d="M27.666 13.6667L24.9993 14.3334" stroke="#3174CD" stroke-width="2" stroke-linecap="round" stroke-linejoin="round"/>
<path d="M9.66602 20.3333L9.99357 19.5144C10.4807 18.2966 10.7243 17.6877 11.2322 17.3439C11.7401 17 12.3959 17 13.7075 17H16.2912C17.6028 17 18.2586 17 18.7665 17.3439C19.2744 17.6877 19.518 18.2966 20.0051 19.5144L20.3327 20.3333" stroke="#3174CD" stroke-width="2" stroke-linecap="round" stroke-linejoin="round"/>
<path d="M1.66602 19.6667V23.5094C1.66602 24.0144 1.98702 24.4761 2.4952 24.7019C2.82492 24.8485 3.13986 25.0001 3.52012 25.0001H5.81191C6.19217 25.0001 6.50711 24.8485 6.83684 24.7019C7.34501 24.4761 7.66602 24.0144 7.66602 23.5094V21.0001" stroke="#3174CD" stroke-width="2" stroke-linecap="round" stroke-linejoin="round"/>
<path d="M22.334 21.0001V23.5094C22.334 24.0144 22.655 24.4761 23.1632 24.7019C23.4929 24.8485 23.8078 25.0001 24.1881 25.0001H26.4799C26.8601 25.0001 27.1751 24.8485 27.5048 24.7019C28.013 24.4761 28.334 24.0144 28.334 23.5094V19.6667" stroke="#3174CD" stroke-width="2" stroke-linecap="round" stroke-linejoin="round"/>
<path d="M25.666 8.33341L26.9993 7.66675" stroke="#3174CD" stroke-width="2" stroke-linecap="round" stroke-linejoin="round"/>
<path d="M4.33398 8.33341L3.00065 7.66675" stroke="#3174CD" stroke-width="2" stroke-linecap="round" stroke-linejoin="round"/>
<path d="M5 9L6.45107 4.64679C7.03776 2.88673 7.3311 2.00671 8.02946 1.50335C8.72783 1 9.65546 1 11.5107 1H18.4893C20.3445 1 21.2722 1 21.9705 1.50335C22.6689 2.00671 22.9622 2.88673 23.5489 4.64679L25 9" stroke="#3174CD" stroke-width="2" stroke-linejoin="round"/>
<path d="M4.99935 9H24.9993C26.2756 10.3514 28.3327 12.2333 28.3327 14.3328V18.9602C28.3327 19.7209 27.8266 20.3611 27.1551 20.45L22.9993 21H6.99935L2.84356 20.45C2.17208 20.3611 1.66602 19.7209 1.66602 18.9602V14.3328C1.66602 12.2333 3.72306 10.3514 4.99935 9Z" stroke="#3174CD" stroke-width="2" stroke-linejoin="round"/>
</svg>
