<svg width="30" height="26" viewBox="0 0 30 26" fill="none" xmlns="http://www.w3.org/2000/svg">
<path d="M1.66602 1H7.97614C11.4576 1 13.1984 1 14.8232 1.53492C16.4481 2.06985 17.8484 3.10393 20.6491 5.17209L25.5712 8.80689C25.6249 8.84659 25.6518 8.86645 25.6772 8.88554C27.3315 10.1317 28.3127 12.076 28.3324 14.147C28.3327 14.1788 28.3327 14.2122 28.3327 14.279C28.3327 14.3294 28.3327 14.3547 28.3323 14.376C28.3093 15.8154 27.148 16.9766 25.7087 16.9997C25.6873 17 25.6621 17 25.6117 17H1.66602" stroke="#3174CD" stroke-width="2" stroke-linecap="round"/>
<path d="M1.66602 7.66663H4.1898C4.54972 7.66663 4.72968 7.66663 4.90014 7.67756C6.35963 7.77114 7.71666 8.45996 8.6537 9.58282C8.76314 9.71397 8.86937 9.85924 9.08181 10.1498C9.15112 10.2445 9.18578 10.2919 9.21763 10.3397C9.48833 10.7454 9.64256 11.2176 9.66355 11.7049C9.66602 11.7623 9.66602 11.821 9.66602 11.9384V12.2209C9.66602 12.4498 9.66602 12.5642 9.63148 12.6554C9.57736 12.7984 9.46447 12.9113 9.32147 12.9654C9.23024 13 9.11582 13 8.88698 13H1.66602" stroke="#3174CD" stroke-width="2" stroke-linecap="round"/>
<path d="M27 11.6667H22.1111C18.1838 11.6667 15 8.68194 15 5.00004V2.33337" stroke="#3174CD" stroke-width="2" stroke-linecap="round" stroke-linejoin="round"/>
<path d="M1.66602 22.3334H28.3327" stroke="#3174CD" stroke-width="2" stroke-linecap="round"/>
<path d="M23 22.3334V25" stroke="#3174CD" stroke-width="2" stroke-linecap="round" stroke-linejoin="round"/>
<path d="M15 22.3334V25" stroke="#3174CD" stroke-width="2" stroke-linecap="round" stroke-linejoin="round"/>
<path d="M7 22.3334V25" stroke="#3174CD" stroke-width="2" stroke-linecap="round" stroke-linejoin="round"/>
</svg>
