<svg width="32" height="32" viewBox="0 0 32 32" fill="none" xmlns="http://www.w3.org/2000/svg">
<path d="M2.66602 10.0953C2.66602 6.8765 2.66602 5.26709 3.53869 4.17279C3.72543 3.93862 3.93789 3.72617 4.17206 3.53942C5.26635 2.66675 6.87577 2.66675 10.0946 2.66675H21.9041C25.1229 2.66675 26.7323 2.66675 27.8266 3.53942C28.0608 3.72617 28.2733 3.93862 28.46 4.17279C29.3327 5.26709 29.3327 6.8765 29.3327 10.0953C29.3327 14.3871 29.3327 16.533 28.1691 17.992C27.9201 18.3043 27.6369 18.5875 27.3246 18.8365C25.8656 20.0001 23.7197 20.0001 19.4279 20.0001H12.5708C8.27902 20.0001 6.13313 20.0001 4.67407 18.8365C4.36184 18.5875 4.07857 18.3043 3.82958 17.992C2.66602 16.533 2.66602 14.3871 2.66602 10.0953Z" stroke="#3174CD" stroke-width="2"/>
<path d="M9.33376 23.3333L8.92493 23.9465C8.40625 24.7245 8.58571 25.7722 9.33376 26.3333C10.0818 26.8943 10.2613 27.942 9.74259 28.72L9.33376 29.3333M16.0004 23.3333L15.5916 23.9465C15.0729 24.7245 15.2524 25.7722 16.0004 26.3333C16.7485 26.8943 16.9279 27.942 16.4093 28.72L16.0004 29.3333M22.6671 23.3333L22.2583 23.9465C21.7396 24.7245 21.919 25.7722 22.6671 26.3333C23.4151 26.8943 23.5946 27.942 23.0759 28.72L22.6671 29.3333" stroke="#3174CD" stroke-width="2" stroke-linecap="round"/>
<path d="M24.0004 19.3333C24.0004 18.7138 24.0004 18.404 23.9492 18.1464C23.7387 17.0886 22.9118 16.2617 21.854 16.0512C21.5964 16 21.2866 16 20.6671 16H12.0004C10.7579 16 10.1366 16 9.64657 16.203C8.99316 16.4736 8.47403 16.9928 8.20338 17.6462C8.04044 18.0395 8.0083 18.5174 8.00195 19.3333" stroke="#3174CD" stroke-width="2" stroke-linecap="round"/>
<path d="M8 11.3333H24" stroke="#3174CD" stroke-width="2" stroke-linecap="round"/>
<path d="M8 8H24" stroke="#3174CD" stroke-width="2" stroke-linecap="round"/>
</svg>
