<svg width="28" height="29" viewBox="0 0 28 29" fill="none" xmlns="http://www.w3.org/2000/svg">
<g clip-path="url(#clip0_4359_7174)">
<path d="M5.35547 7.40186C6.03373 2.63697 10.4421 -0.68212 15.2109 -0.0141602C19.0686 0.526306 22.1016 3.55751 22.6455 7.41357L22.6465 7.42139L22.6826 7.72314C22.7139 8.02511 22.7296 8.32861 22.7295 8.63232V13.5942H25.8643C27.0989 13.5942 28.0996 14.5949 28.0996 15.8296C28.0996 16.9134 27.3281 17.813 26.3047 18.0181V24.2476C27.3283 24.4523 28.0996 25.3538 28.0996 26.438C28.0995 27.6725 27.0988 28.6733 25.8643 28.6733H2.13574C0.901191 28.6733 -0.0994929 27.6725 -0.0996094 26.438C-0.0996094 25.3541 0.671646 24.4523 1.69531 24.2476V18.019C0.671742 17.8143 -0.0996094 16.9134 -0.0996094 15.8296C-0.0994784 14.595 0.901202 13.5942 2.13574 13.5942H5.26953V8.63232C5.26944 8.23424 5.29684 7.83633 5.35059 7.44189C5.3521 7.42724 5.35344 7.41389 5.35547 7.40186ZM2.04492 25.5063C1.83176 25.5293 1.6317 25.6242 1.47949 25.7778C1.30572 25.9532 1.20808 26.1901 1.20801 26.437C1.20801 26.684 1.30565 26.9217 1.47949 27.0972C1.65332 27.2725 1.88985 27.3723 2.13672 27.3745H25.8633C26.1102 27.3723 26.3467 27.2725 26.5205 27.0972C26.6943 26.9217 26.792 26.684 26.792 26.437C26.7919 26.1901 26.6943 25.9532 26.5205 25.7778C26.3467 25.6024 26.1102 25.5027 25.8633 25.5005H2.13672L2.04492 25.5063ZM21.6426 24.2017H25.0059V18.0649H21.6426V24.2017ZM16.9805 24.2017H20.3438V18.0649H16.9805V24.2017ZM12.3184 24.2017H15.6816V18.0649H12.3184V24.2017ZM7.65625 24.2017H11.0195V18.0649H7.65625V24.2017ZM2.99414 24.2017H6.3584V18.0649H2.99414V24.2017ZM2.13574 14.8931C1.88743 14.8931 1.64928 14.992 1.47363 15.1675C1.29798 15.3431 1.19932 15.5812 1.19922 15.8296C1.19918 15.9526 1.22346 16.0743 1.27051 16.188C1.31748 16.3015 1.38589 16.4048 1.47266 16.4917C1.55964 16.5787 1.66367 16.6477 1.77734 16.6948C1.89098 16.7419 2.01274 16.7671 2.13574 16.7671H25.8643C26.1125 16.7671 26.3507 16.6681 26.5264 16.4927C26.702 16.317 26.8008 16.078 26.8008 15.8296C26.8007 15.5813 26.702 15.3431 26.5264 15.1675C26.3507 14.992 26.1126 14.8931 25.8643 14.8931H2.13574ZM14.6494 13.5942H21.4307V8.63232C21.4307 8.47483 21.4249 8.31766 21.415 8.16064H14.6494V13.5942ZM6.58496 8.15967C6.57511 8.31703 6.56836 8.47457 6.56836 8.63232V13.5942H13.3506V8.15967H6.58496ZM14.6494 6.86182H21.2168C20.4651 3.79608 17.8051 1.50952 14.6494 1.23096V6.86182ZM13.3506 1.23096C10.1817 1.50673 7.53794 3.77878 6.7832 6.86084H13.3506V1.23096Z" fill="#3174CD" stroke="#3174CD" stroke-width="0.2"/>
</g>
<defs>
<clipPath id="clip0_4359_7174">
<rect width="28" height="28.5727" fill="white"/>
</clipPath>
</defs>
</svg>
