<svg width="30" height="26" viewBox="0 0 30 26" fill="none" xmlns="http://www.w3.org/2000/svg">
<path d="M28.334 13H19.0007C18.1352 13 17.293 12.7193 16.6007 12.2L13.4007 9.8C12.7083 9.28071 11.8661 9 11.0007 9H1.66732" stroke="#3174CD" stroke-width="2" stroke-linecap="round" stroke-linejoin="round"/>
<path d="M3 9V11.6667C3 16.695 3 19.2091 4.5621 20.7712C6.12419 22.3333 8.63835 22.3333 13.6667 22.3333H17.6667C21.4119 22.3333 23.2845 22.3333 24.6297 21.4345C25.2121 21.0454 25.7121 20.5454 26.1012 19.963C27 18.6178 27 16.7452 27 13" stroke="#3174CD" stroke-width="2" stroke-linecap="round" stroke-linejoin="round"/>
<path d="M23 22.3335V25.0002M7 22.3335V25.0002" stroke="#3174CD" stroke-width="2" stroke-linecap="round" stroke-linejoin="round"/>
<path d="M5.66797 9V3C5.66797 1.89543 6.5634 1 7.66797 1C8.77254 1 9.66797 1.89543 9.66797 3V3.66667" stroke="#3174CD" stroke-width="2" stroke-linecap="round" stroke-linejoin="round"/>
</svg>
