<svg width="24" height="30" viewBox="0 0 24 30" fill="none" xmlns="http://www.w3.org/2000/svg">
<path d="M8 18.9998L4 28.3331" stroke="#3174CD" stroke-width="2" stroke-linecap="round"/>
<path d="M16 18.9998L20 28.3331" stroke="#3174CD" stroke-width="2" stroke-linecap="round"/>
<path d="M12 18.9998L12 28.3331" stroke="#3174CD" stroke-width="2" stroke-linecap="round"/>
<path d="M16.7401 6.99984C17.5302 6.26346 17.5302 5.06955 16.7401 4.33317C15.95 3.59679 15.95 2.40288 16.7401 1.6665M11.9993 6.99984C12.7895 6.26346 12.7895 5.06955 11.9993 4.33317C11.2092 3.59679 11.2092 2.40288 11.9993 1.6665M7.25861 6.99984C8.04873 6.26346 8.04873 5.06955 7.25861 4.33317C6.46848 3.59679 6.46848 2.40288 7.25861 1.6665" stroke="#3174CD" stroke-width="2" stroke-linecap="round"/>
<path d="M6 24.333H18" stroke="#3174CD" stroke-width="2" stroke-linecap="round"/>
<path d="M11.9993 18.9998C16.7155 18.9998 20.617 15.5209 21.264 10.9959C21.3469 10.416 21.3884 10.1261 21.1885 9.89631C20.9886 9.6665 20.6661 9.6665 20.0212 9.6665H3.97747C3.33258 9.6665 3.01013 9.6665 2.81023 9.89631C2.61033 10.1261 2.65178 10.416 2.7347 10.9959C3.38173 15.5209 7.28315 18.9998 11.9993 18.9998Z" stroke="#3174CD" stroke-width="2" stroke-linecap="round" stroke-linejoin="round"/>
<path d="M21.334 12.333H22.6673M2.66732 12.333H1.33398" stroke="#3174CD" stroke-width="2" stroke-linecap="round"/>
</svg>
