<svg width="32" height="32" viewBox="0 0 32 32" fill="none" xmlns="http://www.w3.org/2000/svg">
<path d="M2.66602 12C2.66602 8.22876 2.66602 6.34315 3.83759 5.17157C5.00916 4 6.89478 4 10.666 4H21.3327C25.1039 4 26.9895 4 28.1611 5.17157C29.3327 6.34315 29.3327 8.22876 29.3327 12V13.3333C29.3327 17.1046 29.3327 18.9902 28.1611 20.1618C26.9895 21.3333 25.1039 21.3333 21.3327 21.3333H10.666C6.89478 21.3333 5.00916 21.3333 3.83759 20.1618C2.66602 18.9902 2.66602 17.1046 2.66602 13.3333V12Z" stroke="#3174CD" stroke-width="2"/>
<path d="M16 25.3333V22M16 25.3333L24 28M16 25.3333L8 28" stroke="#3174CD" stroke-width="2" stroke-linecap="round"/>
</svg>
