<svg width="25" height="28" viewBox="0 0 25 28" fill="none" xmlns="http://www.w3.org/2000/svg">
<g clip-path="url(#clip0_4359_7225)">
<path d="M24.0449 -0.0996094C24.0964 -0.0996434 24.1477 -0.0900074 24.1953 -0.0703125C24.2428 -0.0506362 24.2859 -0.0216829 24.3223 0.0146484C24.3586 0.0509686 24.3875 0.0941697 24.4072 0.141602C24.4269 0.189152 24.4375 0.240538 24.4375 0.291992V27.708L24.4297 27.7852C24.4145 27.8604 24.3773 27.9303 24.3223 27.9854C24.2488 28.0588 24.1488 28.0995 24.0449 28.0996H0.291992C0.240535 28.0996 0.189147 28.09 0.141602 28.0703C0.0941442 28.0506 0.0509852 28.0217 0.0146484 27.9854C-0.0216863 27.949 -0.0506213 27.9059 -0.0703125 27.8584C-0.0899879 27.8109 -0.0996247 27.7595 -0.0996094 27.708V0.291992C-0.0996247 0.240534 -0.0899886 0.189148 -0.0703125 0.141602C-0.0506212 0.0941418 -0.0216864 0.0509833 0.0146484 0.0146484C0.0509829 -0.021686 0.0941415 -0.050621 0.141602 -0.0703125C0.189149 -0.089989 0.240535 -0.0996247 0.291992 -0.0996094H24.0449ZM0.683594 27.3164H23.6533V4.94043H0.683594V27.3164ZM18.8379 4.15625H23.6533V0.683594H18.8379V4.15625ZM7.76367 4.15625H18.0537V0.683594H7.76367V4.15625ZM0.683594 4.15625H6.98047V0.683594H0.683594V4.15625Z" fill="#3174CD" stroke="#3174CD" stroke-width="0.2"/>
<path d="M4.9834 1.12646C5.32681 1.12677 5.65659 1.26254 5.89941 1.50537C6.14224 1.7482 6.27802 2.07798 6.27832 2.42139C6.27829 3.1349 5.69799 3.71631 4.9834 3.71631H2.23438C1.51984 3.71631 0.93948 3.13591 0.939453 2.42139C0.939453 1.70678 1.52084 1.12646 2.23438 1.12646H4.9834ZM2.23438 1.90869C2.09856 1.90869 1.96811 1.96207 1.87207 2.05811C1.77603 2.15414 1.72266 2.2846 1.72266 2.42041C1.72267 2.55621 1.77604 2.68669 1.87207 2.78271C1.9681 2.87872 2.09858 2.93213 2.23438 2.93213H4.9834C5.1192 2.93213 5.24967 2.87873 5.3457 2.78271C5.44173 2.68669 5.49511 2.55621 5.49512 2.42041C5.49512 2.2846 5.44174 2.15414 5.3457 2.05811C5.24967 1.96207 5.11921 1.90869 4.9834 1.90869H2.23438Z" fill="#3174CD" stroke="#3174CD" stroke-width="0.2"/>
<path d="M10.3125 0.867188C11.1687 0.867188 11.865 1.56303 11.8662 2.41992C11.8672 3.27734 11.1696 3.97363 10.3125 3.97363C9.45546 3.97338 8.75977 3.27597 8.75977 2.41992C8.76002 1.56405 9.45662 0.867442 10.3125 0.867188ZM10.1631 1.66504C10.0136 1.69477 9.8763 1.76823 9.76855 1.87598C9.66081 1.98372 9.58734 2.12106 9.55762 2.27051C9.528 2.41978 9.54336 2.57423 9.60156 2.71484C9.65982 2.8555 9.75822 2.9759 9.88477 3.06055C10.0113 3.14511 10.1603 3.19034 10.3125 3.19043C10.5168 3.19023 10.713 3.1093 10.8574 2.96484C11.0019 2.82039 11.0828 2.62421 11.083 2.41992C11.0829 2.26771 11.0377 2.11875 10.9531 1.99219C10.8685 1.86565 10.7481 1.76725 10.6074 1.70898C10.4668 1.65078 10.3124 1.63542 10.1631 1.66504Z" fill="#3174CD" stroke="#3174CD" stroke-width="0.2"/>
<path d="M15.1172 0.867188C15.9742 0.867188 16.6706 1.56293 16.6709 2.41992C16.6709 3.27713 15.9744 3.97363 15.1172 3.97363C14.2601 3.97338 13.5645 3.27597 13.5645 2.41992C13.5647 1.56405 14.2613 0.867442 15.1172 0.867188ZM14.9678 1.66504C14.8183 1.69477 14.681 1.76823 14.5732 1.87598C14.4655 1.98372 14.392 2.12106 14.3623 2.27051C14.3327 2.41978 14.348 2.57423 14.4062 2.71484C14.4645 2.8555 14.5629 2.9759 14.6895 3.06055C14.816 3.14511 14.965 3.19034 15.1172 3.19043C15.3215 3.19023 15.5177 3.1093 15.6621 2.96484C15.8066 2.82039 15.8875 2.62421 15.8877 2.41992C15.8876 2.26771 15.8424 2.11875 15.7578 1.99219C15.6732 1.86565 15.5528 1.76725 15.4121 1.70898C15.2715 1.65078 15.117 1.63542 14.9678 1.66504Z" fill="#3174CD" stroke="#3174CD" stroke-width="0.2"/>
<path d="M20.2314 1.12109C20.3315 1.09436 20.4386 1.10849 20.5283 1.16016C20.6181 1.2119 20.6839 1.29742 20.7109 1.39746C20.7379 1.49747 20.7243 1.60443 20.6729 1.69434L19.709 3.36426C19.6747 3.42373 19.6248 3.47336 19.5654 3.50781C19.5061 3.54216 19.4387 3.56028 19.3701 3.56055H19.3691C19.3004 3.56049 19.2332 3.54156 19.1738 3.50684C19.0841 3.45489 19.0181 3.36962 18.9912 3.26953C18.9644 3.16945 18.9787 3.0625 19.0303 2.97266L19.9941 1.30273C20.0461 1.21328 20.1315 1.1479 20.2314 1.12109Z" fill="#3174CD" stroke="#3174CD" stroke-width="0.2"/>
<path d="M21.6221 1.12109C21.7221 1.09436 21.8292 1.10849 21.9189 1.16016C22.0087 1.2119 22.0745 1.29742 22.1016 1.39746C22.1286 1.49747 22.1149 1.60443 22.0635 1.69434L21.0996 3.36426C21.0742 3.40872 21.0395 3.44717 20.999 3.47852C20.9583 3.50995 20.9119 3.53348 20.8623 3.54688C20.8125 3.56026 20.7601 3.56347 20.709 3.55664C20.6579 3.54981 20.6089 3.53278 20.5645 3.50684C20.4748 3.45489 20.4087 3.36962 20.3818 3.26953C20.355 3.16945 20.3693 3.0625 20.4209 2.97266L21.3848 1.30273C21.4367 1.21328 21.5222 1.1479 21.6221 1.12109Z" fill="#3174CD" stroke="#3174CD" stroke-width="0.2"/>
<path d="M23.0205 1.12109C23.1206 1.09436 23.2276 1.10849 23.3174 1.16016C23.4072 1.2119 23.473 1.29742 23.5 1.39746C23.527 1.49747 23.5134 1.60444 23.4619 1.69434L22.498 3.36426C22.4638 3.42381 22.4139 3.47334 22.3545 3.50781C22.295 3.54227 22.227 3.56049 22.1582 3.56055C22.0895 3.56049 22.0222 3.54156 21.9629 3.50684C21.8732 3.45489 21.8072 3.36962 21.7803 3.26953C21.7535 3.16945 21.7677 3.0625 21.8193 2.97266L22.7832 1.30273C22.8352 1.21328 22.9206 1.1479 23.0205 1.12109Z" fill="#3174CD" stroke="#3174CD" stroke-width="0.2"/>
<mask id="path-8-outside-1_4359_7225" maskUnits="userSpaceOnUse" x="1.8125" y="6.1001" width="20" height="20" fill="black">
<rect fill="white" x="1.8125" y="6.1001" width="20" height="20"/>
<path fill-rule="evenodd" clip-rule="evenodd" d="M20.3414 7.1001H3.99523C3.68192 7.10045 3.38154 7.22508 3.15999 7.44662C2.93844 7.66817 2.81382 7.96855 2.81346 8.28187V10.1841C2.81289 10.1916 2.8125 10.1992 2.8125 10.2068C2.8125 10.2144 2.8125 10.222 2.81346 10.2296V22.9088C2.81289 22.9163 2.8125 22.9239 2.8125 22.9316C2.8125 22.9392 2.8125 22.9468 2.81346 22.9543V23.8193C2.81382 24.1326 2.93844 24.433 3.15999 24.6546C3.38154 24.8761 3.68192 25.0007 3.99523 25.0011H20.3414C20.6547 25.0007 20.9551 24.8761 21.1767 24.6546C21.3982 24.433 21.5228 24.1326 21.5232 23.8193V8.28187C21.5228 7.96855 21.3982 7.66817 21.1767 7.44662C20.9551 7.22508 20.6547 7.10045 20.3414 7.1001ZM15.9658 22.6395L15.1613 20.7743V19.179H18.723V19.3352C18.7224 19.3427 18.722 19.3503 18.722 19.3579C18.722 19.3655 18.722 19.3731 18.723 19.3807V20.7743L17.9181 22.6395H15.9658ZM19.3071 19.6869C19.7023 19.7883 19.9896 20.089 19.9896 20.4437C19.9896 20.84 19.6305 21.1692 19.1632 21.2277L19.283 20.9497C19.2991 20.9133 19.3073 20.8739 19.3071 20.8341V19.6869ZM18.9093 21.8166C18.9443 21.8182 18.9796 21.8192 19.0141 21.8192C19.8739 21.8192 20.5728 21.2013 20.5728 20.4427C20.5728 19.7725 20.0272 19.2122 19.3071 19.0907V18.8869C19.3072 18.8486 19.2996 18.8106 19.2849 18.7751C19.2703 18.7397 19.2488 18.7075 19.2216 18.6804C19.1945 18.6532 19.1623 18.6317 19.1269 18.617C19.0914 18.6024 19.0534 18.5948 19.0151 18.5949H14.8702C14.8318 18.5948 14.7938 18.6024 14.7584 18.617C14.723 18.6317 14.6907 18.6532 14.6636 18.6804C14.6365 18.7075 14.615 18.7397 14.6003 18.7751C14.5856 18.8106 14.5781 18.8486 14.5781 18.8869V20.8341C14.5784 20.8738 14.5866 20.9132 14.6022 20.9497L15.3307 22.6395H12.1208C13.1128 21.9937 13.77 20.8746 13.77 19.6051C13.77 17.6097 12.1467 15.9865 10.1514 15.9865C9.72374 15.986 9.29939 16.0617 8.89832 16.2102C8.49722 16.0618 8.07289 15.986 7.64522 15.9865C5.6499 15.9865 4.02666 17.6097 4.02666 19.6051C4.02666 20.8746 4.68386 21.9935 5.67583 22.6395H3.39664V10.4989H6.28744V10.7919H6.19394C5.60787 10.7919 5.00157 11.084 4.6507 11.5351C4.38176 11.8812 4.28923 12.287 4.38851 12.6783L4.77504 14.2013C4.79103 14.2641 4.82747 14.3198 4.87861 14.3596C4.92975 14.3994 4.99268 14.421 5.05747 14.4211H8.1025C8.16738 14.4209 8.23037 14.3992 8.28164 14.3595C8.3329 14.3197 8.36956 14.2641 8.3859 14.2013L8.77243 12.6783C8.87171 12.286 8.77918 11.8802 8.51024 11.5351C8.15841 11.084 7.55307 10.7919 6.967 10.7919H6.87157V10.4989H11.8763V10.7919H11.7818C11.1957 10.7919 10.5894 11.084 10.2386 11.5351C9.96962 11.8812 9.87708 12.287 9.97637 12.6783L10.3629 14.2013C10.3789 14.2641 10.4153 14.3198 10.4665 14.3596C10.5176 14.3994 10.5805 14.421 10.6453 14.4211H13.6913C13.7561 14.421 13.819 14.3994 13.8702 14.3596C13.9213 14.3198 13.9578 14.2641 13.9738 14.2013L14.3603 12.6783C14.4596 12.286 14.367 11.8802 14.0981 11.5351C13.7463 11.084 13.1409 10.7919 12.5549 10.7919H12.4604V10.4989H17.4651V10.7919H17.3706C16.7845 10.7919 16.1782 11.083 15.8274 11.5351C15.5584 11.8812 15.4659 12.287 15.5652 12.6783L15.9517 14.2013C15.9677 14.2641 16.0041 14.3198 16.0553 14.3596C16.1064 14.3994 16.1693 14.421 16.2341 14.4211H19.2801C19.3449 14.421 19.4079 14.3994 19.459 14.3596C19.5101 14.3198 19.5466 14.2641 19.5626 14.2013L19.9491 12.6783C20.0484 12.286 19.9558 11.8802 19.6869 11.5351C19.3351 11.084 18.7297 10.7919 18.1437 10.7919H18.0492V10.4989H20.94V22.6395H18.5543L18.9093 21.8166ZM10.681 19.606C10.681 20.8743 9.89954 21.9625 8.79325 22.4159C8.78959 22.4173 8.78592 22.4188 8.78236 22.4204C8.4534 22.5537 8.10349 22.6279 7.74874 22.6395H7.54324C5.91633 22.5851 4.6106 21.245 4.6106 19.606C4.6106 17.9317 5.97262 16.5706 7.64599 16.5706C9.31936 16.5706 10.68 17.9317 10.681 19.606ZM11.0694 18.4331C11.2473 18.5727 11.3911 18.7509 11.49 18.9542C11.5889 19.1576 11.6402 19.3808 11.6401 19.6069C11.64 19.833 11.5885 20.0562 11.4894 20.2594C11.3903 20.4627 11.2463 20.6408 11.0683 20.7802C11.3291 20.0196 11.3295 19.1939 11.0694 18.4331ZM9.6709 22.6029C10.0581 22.3403 10.3912 22.0057 10.652 21.6173C11.1008 21.5059 11.4994 21.2474 11.7843 20.8832C12.0693 20.519 12.2242 20.0699 12.2244 19.6074C12.2246 19.145 12.07 18.6958 11.7854 18.3313C11.5007 17.9668 11.1023 17.7081 10.6536 17.5962C10.3926 17.2068 10.0589 16.8713 9.6709 16.6082C9.82993 16.5827 9.99074 16.5698 10.1518 16.5697C11.8261 16.5697 13.1872 17.9307 13.1872 19.6051C13.1872 21.2539 11.8666 22.599 10.2279 22.6395H10.0757C9.94007 22.6363 9.80485 22.624 9.6709 22.6029ZM6.55676 11.3751C6.56428 11.3757 6.57189 11.3761 6.57951 11.3761C6.58712 11.3761 6.59464 11.3761 6.60216 11.3751H6.967C7.37378 11.3751 7.80851 11.5833 8.04949 11.8937C8.15937 12.0354 8.27601 12.2609 8.20661 12.5347L7.87598 13.8379H5.284L4.95433 12.5347C4.88493 12.2619 5.00157 12.0354 5.11145 11.8937C5.35243 11.5833 5.78716 11.3751 6.19394 11.3751H6.55676ZM12.1456 11.3751C12.1531 11.3757 12.1607 11.3761 12.1683 11.3761C12.1759 11.3761 12.1835 11.3761 12.191 11.3751H12.5558C12.9626 11.3751 13.3973 11.5833 13.6383 11.8937C13.7482 12.0354 13.8648 12.2609 13.7954 12.5347L13.4648 13.8379H10.8728L10.5432 12.5347C10.4738 12.2619 10.5904 12.0354 10.7003 11.8937C10.9413 11.5833 11.376 11.3751 11.7828 11.3751H12.1456ZM17.7344 11.3751C17.7419 11.3757 17.7495 11.3761 17.7571 11.3761C17.7648 11.3761 17.7723 11.3761 17.7798 11.3751H18.1446C18.5514 11.3751 18.9861 11.5833 19.2271 11.8937C19.337 12.0354 19.4536 12.2609 19.3842 12.5347L19.0536 13.8379H16.4616L16.132 12.5347C16.0626 12.2609 16.1792 12.0354 16.2891 11.8937C16.5301 11.5833 16.9648 11.3751 17.3716 11.3751H17.7344ZM3.99523 7.68327H20.3414C20.5001 7.68358 20.6522 7.74674 20.7644 7.85893C20.8765 7.97113 20.9397 8.1232 20.94 8.28187V9.91475H18.0492V9.13301H18.9534C19.0308 9.13301 19.1051 9.10224 19.1599 9.04746C19.2147 8.99269 19.2454 8.9184 19.2454 8.84094C19.2454 8.76348 19.2147 8.68919 19.1599 8.63442C19.1051 8.57964 19.0308 8.54887 18.9534 8.54887H16.5609C16.4835 8.54887 16.4092 8.57964 16.3544 8.63442C16.2996 8.68919 16.2688 8.76348 16.2688 8.84094C16.2688 8.9184 16.2996 8.99269 16.3544 9.04746C16.4092 9.10224 16.4835 9.13301 16.5609 9.13301H17.4651V9.91475H12.4604V9.13301H13.3646C13.442 9.13301 13.5163 9.10224 13.5711 9.04746C13.6258 8.99269 13.6566 8.9184 13.6566 8.84094C13.6566 8.76348 13.6258 8.68919 13.5711 8.63442C13.5163 8.57964 13.442 8.54887 13.3646 8.54887H10.9721C10.8946 8.54887 10.8203 8.57964 10.7656 8.63442C10.7108 8.68919 10.68 8.76348 10.68 8.84094C10.68 8.9184 10.7108 8.99269 10.7656 9.04746C10.8203 9.10224 10.8946 9.13301 10.9721 9.13301H11.8763V9.91475H6.87157V9.13301H7.77573C7.85319 9.13301 7.92748 9.10224 7.98226 9.04746C8.03703 8.99269 8.0678 8.9184 8.0678 8.84094C8.0678 8.76348 8.03703 8.68919 7.98226 8.63442C7.92748 8.57964 7.85319 8.54887 7.77573 8.54887H5.38328C5.30582 8.54887 5.23153 8.57964 5.17676 8.63442C5.12198 8.68919 5.09121 8.76348 5.09121 8.84094C5.09121 8.9184 5.12198 8.99269 5.17676 9.04746C5.23153 9.10224 5.30582 9.13301 5.38328 9.13301H6.28744V9.91475H3.39664V8.28187C3.39694 8.1232 3.46011 7.97113 3.5723 7.85893C3.68449 7.74674 3.83657 7.68358 3.99523 7.68327ZM20.3414 24.4179H3.99523C3.83657 24.4176 3.68449 24.3544 3.5723 24.2423C3.46011 24.1301 3.39694 23.978 3.39664 23.8193V23.2236H20.94V23.8193C20.9399 23.978 20.8767 24.1302 20.7645 24.2424C20.6523 24.3546 20.5001 24.4178 20.3414 24.4179Z"/>
</mask>
<path fill-rule="evenodd" clip-rule="evenodd" d="M20.3414 7.1001H3.99523C3.68192 7.10045 3.38154 7.22508 3.15999 7.44662C2.93844 7.66817 2.81382 7.96855 2.81346 8.28187V10.1841C2.81289 10.1916 2.8125 10.1992 2.8125 10.2068C2.8125 10.2144 2.8125 10.222 2.81346 10.2296V22.9088C2.81289 22.9163 2.8125 22.9239 2.8125 22.9316C2.8125 22.9392 2.8125 22.9468 2.81346 22.9543V23.8193C2.81382 24.1326 2.93844 24.433 3.15999 24.6546C3.38154 24.8761 3.68192 25.0007 3.99523 25.0011H20.3414C20.6547 25.0007 20.9551 24.8761 21.1767 24.6546C21.3982 24.433 21.5228 24.1326 21.5232 23.8193V8.28187C21.5228 7.96855 21.3982 7.66817 21.1767 7.44662C20.9551 7.22508 20.6547 7.10045 20.3414 7.1001ZM15.9658 22.6395L15.1613 20.7743V19.179H18.723V19.3352C18.7224 19.3427 18.722 19.3503 18.722 19.3579C18.722 19.3655 18.722 19.3731 18.723 19.3807V20.7743L17.9181 22.6395H15.9658ZM19.3071 19.6869C19.7023 19.7883 19.9896 20.089 19.9896 20.4437C19.9896 20.84 19.6305 21.1692 19.1632 21.2277L19.283 20.9497C19.2991 20.9133 19.3073 20.8739 19.3071 20.8341V19.6869ZM18.9093 21.8166C18.9443 21.8182 18.9796 21.8192 19.0141 21.8192C19.8739 21.8192 20.5728 21.2013 20.5728 20.4427C20.5728 19.7725 20.0272 19.2122 19.3071 19.0907V18.8869C19.3072 18.8486 19.2996 18.8106 19.2849 18.7751C19.2703 18.7397 19.2488 18.7075 19.2216 18.6804C19.1945 18.6532 19.1623 18.6317 19.1269 18.617C19.0914 18.6024 19.0534 18.5948 19.0151 18.5949H14.8702C14.8318 18.5948 14.7938 18.6024 14.7584 18.617C14.723 18.6317 14.6907 18.6532 14.6636 18.6804C14.6365 18.7075 14.615 18.7397 14.6003 18.7751C14.5856 18.8106 14.5781 18.8486 14.5781 18.8869V20.8341C14.5784 20.8738 14.5866 20.9132 14.6022 20.9497L15.3307 22.6395H12.1208C13.1128 21.9937 13.77 20.8746 13.77 19.6051C13.77 17.6097 12.1467 15.9865 10.1514 15.9865C9.72374 15.986 9.29939 16.0617 8.89832 16.2102C8.49722 16.0618 8.07289 15.986 7.64522 15.9865C5.6499 15.9865 4.02666 17.6097 4.02666 19.6051C4.02666 20.8746 4.68386 21.9935 5.67583 22.6395H3.39664V10.4989H6.28744V10.7919H6.19394C5.60787 10.7919 5.00157 11.084 4.6507 11.5351C4.38176 11.8812 4.28923 12.287 4.38851 12.6783L4.77504 14.2013C4.79103 14.2641 4.82747 14.3198 4.87861 14.3596C4.92975 14.3994 4.99268 14.421 5.05747 14.4211H8.1025C8.16738 14.4209 8.23037 14.3992 8.28164 14.3595C8.3329 14.3197 8.36956 14.2641 8.3859 14.2013L8.77243 12.6783C8.87171 12.286 8.77918 11.8802 8.51024 11.5351C8.15841 11.084 7.55307 10.7919 6.967 10.7919H6.87157V10.4989H11.8763V10.7919H11.7818C11.1957 10.7919 10.5894 11.084 10.2386 11.5351C9.96962 11.8812 9.87708 12.287 9.97637 12.6783L10.3629 14.2013C10.3789 14.2641 10.4153 14.3198 10.4665 14.3596C10.5176 14.3994 10.5805 14.421 10.6453 14.4211H13.6913C13.7561 14.421 13.819 14.3994 13.8702 14.3596C13.9213 14.3198 13.9578 14.2641 13.9738 14.2013L14.3603 12.6783C14.4596 12.286 14.367 11.8802 14.0981 11.5351C13.7463 11.084 13.1409 10.7919 12.5549 10.7919H12.4604V10.4989H17.4651V10.7919H17.3706C16.7845 10.7919 16.1782 11.083 15.8274 11.5351C15.5584 11.8812 15.4659 12.287 15.5652 12.6783L15.9517 14.2013C15.9677 14.2641 16.0041 14.3198 16.0553 14.3596C16.1064 14.3994 16.1693 14.421 16.2341 14.4211H19.2801C19.3449 14.421 19.4079 14.3994 19.459 14.3596C19.5101 14.3198 19.5466 14.2641 19.5626 14.2013L19.9491 12.6783C20.0484 12.286 19.9558 11.8802 19.6869 11.5351C19.3351 11.084 18.7297 10.7919 18.1437 10.7919H18.0492V10.4989H20.94V22.6395H18.5543L18.9093 21.8166ZM10.681 19.606C10.681 20.8743 9.89954 21.9625 8.79325 22.4159C8.78959 22.4173 8.78592 22.4188 8.78236 22.4204C8.4534 22.5537 8.10349 22.6279 7.74874 22.6395H7.54324C5.91633 22.5851 4.6106 21.245 4.6106 19.606C4.6106 17.9317 5.97262 16.5706 7.64599 16.5706C9.31936 16.5706 10.68 17.9317 10.681 19.606ZM11.0694 18.4331C11.2473 18.5727 11.3911 18.7509 11.49 18.9542C11.5889 19.1576 11.6402 19.3808 11.6401 19.6069C11.64 19.833 11.5885 20.0562 11.4894 20.2594C11.3903 20.4627 11.2463 20.6408 11.0683 20.7802C11.3291 20.0196 11.3295 19.1939 11.0694 18.4331ZM9.6709 22.6029C10.0581 22.3403 10.3912 22.0057 10.652 21.6173C11.1008 21.5059 11.4994 21.2474 11.7843 20.8832C12.0693 20.519 12.2242 20.0699 12.2244 19.6074C12.2246 19.145 12.07 18.6958 11.7854 18.3313C11.5007 17.9668 11.1023 17.7081 10.6536 17.5962C10.3926 17.2068 10.0589 16.8713 9.6709 16.6082C9.82993 16.5827 9.99074 16.5698 10.1518 16.5697C11.8261 16.5697 13.1872 17.9307 13.1872 19.6051C13.1872 21.2539 11.8666 22.599 10.2279 22.6395H10.0757C9.94007 22.6363 9.80485 22.624 9.6709 22.6029ZM6.55676 11.3751C6.56428 11.3757 6.57189 11.3761 6.57951 11.3761C6.58712 11.3761 6.59464 11.3761 6.60216 11.3751H6.967C7.37378 11.3751 7.80851 11.5833 8.04949 11.8937C8.15937 12.0354 8.27601 12.2609 8.20661 12.5347L7.87598 13.8379H5.284L4.95433 12.5347C4.88493 12.2619 5.00157 12.0354 5.11145 11.8937C5.35243 11.5833 5.78716 11.3751 6.19394 11.3751H6.55676ZM12.1456 11.3751C12.1531 11.3757 12.1607 11.3761 12.1683 11.3761C12.1759 11.3761 12.1835 11.3761 12.191 11.3751H12.5558C12.9626 11.3751 13.3973 11.5833 13.6383 11.8937C13.7482 12.0354 13.8648 12.2609 13.7954 12.5347L13.4648 13.8379H10.8728L10.5432 12.5347C10.4738 12.2619 10.5904 12.0354 10.7003 11.8937C10.9413 11.5833 11.376 11.3751 11.7828 11.3751H12.1456ZM17.7344 11.3751C17.7419 11.3757 17.7495 11.3761 17.7571 11.3761C17.7648 11.3761 17.7723 11.3761 17.7798 11.3751H18.1446C18.5514 11.3751 18.9861 11.5833 19.2271 11.8937C19.337 12.0354 19.4536 12.2609 19.3842 12.5347L19.0536 13.8379H16.4616L16.132 12.5347C16.0626 12.2609 16.1792 12.0354 16.2891 11.8937C16.5301 11.5833 16.9648 11.3751 17.3716 11.3751H17.7344ZM3.99523 7.68327H20.3414C20.5001 7.68358 20.6522 7.74674 20.7644 7.85893C20.8765 7.97113 20.9397 8.1232 20.94 8.28187V9.91475H18.0492V9.13301H18.9534C19.0308 9.13301 19.1051 9.10224 19.1599 9.04746C19.2147 8.99269 19.2454 8.9184 19.2454 8.84094C19.2454 8.76348 19.2147 8.68919 19.1599 8.63442C19.1051 8.57964 19.0308 8.54887 18.9534 8.54887H16.5609C16.4835 8.54887 16.4092 8.57964 16.3544 8.63442C16.2996 8.68919 16.2688 8.76348 16.2688 8.84094C16.2688 8.9184 16.2996 8.99269 16.3544 9.04746C16.4092 9.10224 16.4835 9.13301 16.5609 9.13301H17.4651V9.91475H12.4604V9.13301H13.3646C13.442 9.13301 13.5163 9.10224 13.5711 9.04746C13.6258 8.99269 13.6566 8.9184 13.6566 8.84094C13.6566 8.76348 13.6258 8.68919 13.5711 8.63442C13.5163 8.57964 13.442 8.54887 13.3646 8.54887H10.9721C10.8946 8.54887 10.8203 8.57964 10.7656 8.63442C10.7108 8.68919 10.68 8.76348 10.68 8.84094C10.68 8.9184 10.7108 8.99269 10.7656 9.04746C10.8203 9.10224 10.8946 9.13301 10.9721 9.13301H11.8763V9.91475H6.87157V9.13301H7.77573C7.85319 9.13301 7.92748 9.10224 7.98226 9.04746C8.03703 8.99269 8.0678 8.9184 8.0678 8.84094C8.0678 8.76348 8.03703 8.68919 7.98226 8.63442C7.92748 8.57964 7.85319 8.54887 7.77573 8.54887H5.38328C5.30582 8.54887 5.23153 8.57964 5.17676 8.63442C5.12198 8.68919 5.09121 8.76348 5.09121 8.84094C5.09121 8.9184 5.12198 8.99269 5.17676 9.04746C5.23153 9.10224 5.30582 9.13301 5.38328 9.13301H6.28744V9.91475H3.39664V8.28187C3.39694 8.1232 3.46011 7.97113 3.5723 7.85893C3.68449 7.74674 3.83657 7.68358 3.99523 7.68327ZM20.3414 24.4179H3.99523C3.83657 24.4176 3.68449 24.3544 3.5723 24.2423C3.46011 24.1301 3.39694 23.978 3.39664 23.8193V23.2236H20.94V23.8193C20.9399 23.978 20.8767 24.1302 20.7645 24.2424C20.6523 24.3546 20.5001 24.4178 20.3414 24.4179Z" fill="#3174CD"/>
<path fill-rule="evenodd" clip-rule="evenodd" d="M20.3414 7.1001H3.99523C3.68192 7.10045 3.38154 7.22508 3.15999 7.44662C2.93844 7.66817 2.81382 7.96855 2.81346 8.28187V10.1841C2.81289 10.1916 2.8125 10.1992 2.8125 10.2068C2.8125 10.2144 2.8125 10.222 2.81346 10.2296V22.9088C2.81289 22.9163 2.8125 22.9239 2.8125 22.9316C2.8125 22.9392 2.8125 22.9468 2.81346 22.9543V23.8193C2.81382 24.1326 2.93844 24.433 3.15999 24.6546C3.38154 24.8761 3.68192 25.0007 3.99523 25.0011H20.3414C20.6547 25.0007 20.9551 24.8761 21.1767 24.6546C21.3982 24.433 21.5228 24.1326 21.5232 23.8193V8.28187C21.5228 7.96855 21.3982 7.66817 21.1767 7.44662C20.9551 7.22508 20.6547 7.10045 20.3414 7.1001ZM15.9658 22.6395L15.1613 20.7743V19.179H18.723V19.3352C18.7224 19.3427 18.722 19.3503 18.722 19.3579C18.722 19.3655 18.722 19.3731 18.723 19.3807V20.7743L17.9181 22.6395H15.9658ZM19.3071 19.6869C19.7023 19.7883 19.9896 20.089 19.9896 20.4437C19.9896 20.84 19.6305 21.1692 19.1632 21.2277L19.283 20.9497C19.2991 20.9133 19.3073 20.8739 19.3071 20.8341V19.6869ZM18.9093 21.8166C18.9443 21.8182 18.9796 21.8192 19.0141 21.8192C19.8739 21.8192 20.5728 21.2013 20.5728 20.4427C20.5728 19.7725 20.0272 19.2122 19.3071 19.0907V18.8869C19.3072 18.8486 19.2996 18.8106 19.2849 18.7751C19.2703 18.7397 19.2488 18.7075 19.2216 18.6804C19.1945 18.6532 19.1623 18.6317 19.1269 18.617C19.0914 18.6024 19.0534 18.5948 19.0151 18.5949H14.8702C14.8318 18.5948 14.7938 18.6024 14.7584 18.617C14.723 18.6317 14.6907 18.6532 14.6636 18.6804C14.6365 18.7075 14.615 18.7397 14.6003 18.7751C14.5856 18.8106 14.5781 18.8486 14.5781 18.8869V20.8341C14.5784 20.8738 14.5866 20.9132 14.6022 20.9497L15.3307 22.6395H12.1208C13.1128 21.9937 13.77 20.8746 13.77 19.6051C13.77 17.6097 12.1467 15.9865 10.1514 15.9865C9.72374 15.986 9.29939 16.0617 8.89832 16.2102C8.49722 16.0618 8.07289 15.986 7.64522 15.9865C5.6499 15.9865 4.02666 17.6097 4.02666 19.6051C4.02666 20.8746 4.68386 21.9935 5.67583 22.6395H3.39664V10.4989H6.28744V10.7919H6.19394C5.60787 10.7919 5.00157 11.084 4.6507 11.5351C4.38176 11.8812 4.28923 12.287 4.38851 12.6783L4.77504 14.2013C4.79103 14.2641 4.82747 14.3198 4.87861 14.3596C4.92975 14.3994 4.99268 14.421 5.05747 14.4211H8.1025C8.16738 14.4209 8.23037 14.3992 8.28164 14.3595C8.3329 14.3197 8.36956 14.2641 8.3859 14.2013L8.77243 12.6783C8.87171 12.286 8.77918 11.8802 8.51024 11.5351C8.15841 11.084 7.55307 10.7919 6.967 10.7919H6.87157V10.4989H11.8763V10.7919H11.7818C11.1957 10.7919 10.5894 11.084 10.2386 11.5351C9.96962 11.8812 9.87708 12.287 9.97637 12.6783L10.3629 14.2013C10.3789 14.2641 10.4153 14.3198 10.4665 14.3596C10.5176 14.3994 10.5805 14.421 10.6453 14.4211H13.6913C13.7561 14.421 13.819 14.3994 13.8702 14.3596C13.9213 14.3198 13.9578 14.2641 13.9738 14.2013L14.3603 12.6783C14.4596 12.286 14.367 11.8802 14.0981 11.5351C13.7463 11.084 13.1409 10.7919 12.5549 10.7919H12.4604V10.4989H17.4651V10.7919H17.3706C16.7845 10.7919 16.1782 11.083 15.8274 11.5351C15.5584 11.8812 15.4659 12.287 15.5652 12.6783L15.9517 14.2013C15.9677 14.2641 16.0041 14.3198 16.0553 14.3596C16.1064 14.3994 16.1693 14.421 16.2341 14.4211H19.2801C19.3449 14.421 19.4079 14.3994 19.459 14.3596C19.5101 14.3198 19.5466 14.2641 19.5626 14.2013L19.9491 12.6783C20.0484 12.286 19.9558 11.8802 19.6869 11.5351C19.3351 11.084 18.7297 10.7919 18.1437 10.7919H18.0492V10.4989H20.94V22.6395H18.5543L18.9093 21.8166ZM10.681 19.606C10.681 20.8743 9.89954 21.9625 8.79325 22.4159C8.78959 22.4173 8.78592 22.4188 8.78236 22.4204C8.4534 22.5537 8.10349 22.6279 7.74874 22.6395H7.54324C5.91633 22.5851 4.6106 21.245 4.6106 19.606C4.6106 17.9317 5.97262 16.5706 7.64599 16.5706C9.31936 16.5706 10.68 17.9317 10.681 19.606ZM11.0694 18.4331C11.2473 18.5727 11.3911 18.7509 11.49 18.9542C11.5889 19.1576 11.6402 19.3808 11.6401 19.6069C11.64 19.833 11.5885 20.0562 11.4894 20.2594C11.3903 20.4627 11.2463 20.6408 11.0683 20.7802C11.3291 20.0196 11.3295 19.1939 11.0694 18.4331ZM9.6709 22.6029C10.0581 22.3403 10.3912 22.0057 10.652 21.6173C11.1008 21.5059 11.4994 21.2474 11.7843 20.8832C12.0693 20.519 12.2242 20.0699 12.2244 19.6074C12.2246 19.145 12.07 18.6958 11.7854 18.3313C11.5007 17.9668 11.1023 17.7081 10.6536 17.5962C10.3926 17.2068 10.0589 16.8713 9.6709 16.6082C9.82993 16.5827 9.99074 16.5698 10.1518 16.5697C11.8261 16.5697 13.1872 17.9307 13.1872 19.6051C13.1872 21.2539 11.8666 22.599 10.2279 22.6395H10.0757C9.94007 22.6363 9.80485 22.624 9.6709 22.6029ZM6.55676 11.3751C6.56428 11.3757 6.57189 11.3761 6.57951 11.3761C6.58712 11.3761 6.59464 11.3761 6.60216 11.3751H6.967C7.37378 11.3751 7.80851 11.5833 8.04949 11.8937C8.15937 12.0354 8.27601 12.2609 8.20661 12.5347L7.87598 13.8379H5.284L4.95433 12.5347C4.88493 12.2619 5.00157 12.0354 5.11145 11.8937C5.35243 11.5833 5.78716 11.3751 6.19394 11.3751H6.55676ZM12.1456 11.3751C12.1531 11.3757 12.1607 11.3761 12.1683 11.3761C12.1759 11.3761 12.1835 11.3761 12.191 11.3751H12.5558C12.9626 11.3751 13.3973 11.5833 13.6383 11.8937C13.7482 12.0354 13.8648 12.2609 13.7954 12.5347L13.4648 13.8379H10.8728L10.5432 12.5347C10.4738 12.2619 10.5904 12.0354 10.7003 11.8937C10.9413 11.5833 11.376 11.3751 11.7828 11.3751H12.1456ZM17.7344 11.3751C17.7419 11.3757 17.7495 11.3761 17.7571 11.3761C17.7648 11.3761 17.7723 11.3761 17.7798 11.3751H18.1446C18.5514 11.3751 18.9861 11.5833 19.2271 11.8937C19.337 12.0354 19.4536 12.2609 19.3842 12.5347L19.0536 13.8379H16.4616L16.132 12.5347C16.0626 12.2609 16.1792 12.0354 16.2891 11.8937C16.5301 11.5833 16.9648 11.3751 17.3716 11.3751H17.7344ZM3.99523 7.68327H20.3414C20.5001 7.68358 20.6522 7.74674 20.7644 7.85893C20.8765 7.97113 20.9397 8.1232 20.94 8.28187V9.91475H18.0492V9.13301H18.9534C19.0308 9.13301 19.1051 9.10224 19.1599 9.04746C19.2147 8.99269 19.2454 8.9184 19.2454 8.84094C19.2454 8.76348 19.2147 8.68919 19.1599 8.63442C19.1051 8.57964 19.0308 8.54887 18.9534 8.54887H16.5609C16.4835 8.54887 16.4092 8.57964 16.3544 8.63442C16.2996 8.68919 16.2688 8.76348 16.2688 8.84094C16.2688 8.9184 16.2996 8.99269 16.3544 9.04746C16.4092 9.10224 16.4835 9.13301 16.5609 9.13301H17.4651V9.91475H12.4604V9.13301H13.3646C13.442 9.13301 13.5163 9.10224 13.5711 9.04746C13.6258 8.99269 13.6566 8.9184 13.6566 8.84094C13.6566 8.76348 13.6258 8.68919 13.5711 8.63442C13.5163 8.57964 13.442 8.54887 13.3646 8.54887H10.9721C10.8946 8.54887 10.8203 8.57964 10.7656 8.63442C10.7108 8.68919 10.68 8.76348 10.68 8.84094C10.68 8.9184 10.7108 8.99269 10.7656 9.04746C10.8203 9.10224 10.8946 9.13301 10.9721 9.13301H11.8763V9.91475H6.87157V9.13301H7.77573C7.85319 9.13301 7.92748 9.10224 7.98226 9.04746C8.03703 8.99269 8.0678 8.9184 8.0678 8.84094C8.0678 8.76348 8.03703 8.68919 7.98226 8.63442C7.92748 8.57964 7.85319 8.54887 7.77573 8.54887H5.38328C5.30582 8.54887 5.23153 8.57964 5.17676 8.63442C5.12198 8.68919 5.09121 8.76348 5.09121 8.84094C5.09121 8.9184 5.12198 8.99269 5.17676 9.04746C5.23153 9.10224 5.30582 9.13301 5.38328 9.13301H6.28744V9.91475H3.39664V8.28187C3.39694 8.1232 3.46011 7.97113 3.5723 7.85893C3.68449 7.74674 3.83657 7.68358 3.99523 7.68327ZM20.3414 24.4179H3.99523C3.83657 24.4176 3.68449 24.3544 3.5723 24.2423C3.46011 24.1301 3.39694 23.978 3.39664 23.8193V23.2236H20.94V23.8193C20.9399 23.978 20.8767 24.1302 20.7645 24.2424C20.6523 24.3546 20.5001 24.4178 20.3414 24.4179Z" stroke="#3174CD" stroke-width="0.4" mask="url(#path-8-outside-1_4359_7225)"/>
<path d="M7.64941 17.4341C8.84673 17.4341 9.82314 18.4085 9.82227 19.606C9.82125 20.8034 8.84691 21.7778 7.64941 21.7778C6.45202 21.7777 5.47852 20.8034 5.47852 19.606C5.47861 18.4087 6.45202 17.4342 7.64941 17.4341ZM7.64941 18.2173C6.88352 18.2174 6.26182 18.8391 6.26172 19.605C6.26172 20.371 6.88346 20.9936 7.64941 20.9937C8.4154 20.9937 9.03809 20.3701 9.03809 19.605C9.03799 18.84 8.41535 18.2173 7.64941 18.2173Z" fill="#3174CD" stroke="#3174CD" stroke-width="0.2"/>
</g>
<defs>
<clipPath id="clip0_4359_7225">
<rect width="24.3371" height="28" fill="white"/>
</clipPath>
</defs>
</svg>
