<svg width="32" height="32" viewBox="0 0 32 32" fill="none" xmlns="http://www.w3.org/2000/svg">
<path d="M21.9993 27.3334C18.3462 29.3351 15.3327 29.3334 11.3327 28.0001C7.28175 26.6497 4.66602 22.0001 4.66602 18.6667C4.66602 16.8375 7.40835 15.7522 8.35175 15.433C8.53762 15.3701 8.66602 15.1978 8.66602 15.0016V10.0001C8.66602 8.71141 9.71068 7.66675 10.9993 7.66675C12.288 7.66675 13.3327 8.71141 13.3327 10.0001V8.33341C13.3327 7.04475 14.3773 6.00008 15.666 6.00008C16.9547 6.00008 17.9993 7.04475 17.9993 8.33341V10.0001C17.9993 8.71141 19.044 7.66675 20.3327 7.66675C21.6213 7.66675 22.666 8.71141 22.666 10.0001V5.00007C22.666 3.71141 23.7107 2.66675 24.9993 2.66675C26.288 2.66675 27.3327 3.71141 27.3327 5.00007V18.8213C27.3327 20.4695 26.9378 22.1069 25.974 23.4439C24.994 24.8033 23.5709 26.4723 21.9993 27.3334Z" stroke="#3174CD" stroke-width="2" stroke-linecap="round" stroke-linejoin="round"/>
</svg>
