<svg width="32" height="32" viewBox="0 0 32 32" fill="none" xmlns="http://www.w3.org/2000/svg">
<rect x="2" y="2" width="28" height="28" rx="1.6" stroke="#3174CD" stroke-width="1.5"/>
<path d="M27 27V5.2C27 5.08954 26.9105 5 26.8 5H5.2C5.08954 5 5 5.08954 5 5.2V27" stroke="#3174CD" stroke-width="1.5" stroke-linecap="round"/>
<path d="M16 5L16 27" stroke="#3174CD" stroke-width="1.5" stroke-linecap="round"/>
<path d="M21.0016 22.8C21.0016 23.1314 21.2702 23.4 21.6016 23.4C21.9329 23.4 22.2016 23.1314 22.2016 22.8L21.0016 22.8ZM22.0258 10.5758C21.7915 10.3415 21.4116 10.3415 21.1773 10.5758L17.3589 14.3942C17.1246 14.6285 17.1246 15.0084 17.3589 15.2427C17.5932 15.477 17.9731 15.477 18.2075 15.2427L21.6016 11.8486L24.9957 15.2427C25.23 15.477 25.6099 15.477 25.8442 15.2427C26.0785 15.0084 26.0785 14.6285 25.8442 14.3942L22.0258 10.5758ZM21.6016 22.8L22.2016 22.8L22.2016 11L21.6016 11L21.0016 11L21.0016 22.8L21.6016 22.8Z" fill="#3174CD"/>
<path d="M10.1773 23.4243C10.4116 23.6586 10.7915 23.6586 11.0258 23.4243L14.8442 19.6059C15.0785 19.3716 15.0785 18.9917 14.8442 18.7574C14.6099 18.523 14.23 18.523 13.9957 18.7574L10.6016 22.1515L7.20745 18.7574C6.97314 18.523 6.59324 18.523 6.35892 18.7574C6.12461 18.9917 6.12461 19.3716 6.35892 19.6059L10.1773 23.4243ZM11.2016 11.2C11.2016 10.8686 10.9329 10.6 10.6016 10.6C10.2702 10.6 10.0016 10.8686 10.0016 11.2L11.2016 11.2ZM10.6016 23L11.2016 23L11.2016 11.2L10.6016 11.2L10.0016 11.2L10.0016 23L10.6016 23Z" fill="#3174CD"/>
</svg>
