<svg width="32" height="32" viewBox="0 0 32 32" fill="none" xmlns="http://www.w3.org/2000/svg">
<path d="M5.33398 13.3334V17.3334C5.33398 22.3617 5.33398 24.8759 6.89608 26.438C8.45818 28.0001 10.9723 28.0001 16.0007 28.0001C21.029 28.0001 23.5431 28.0001 25.1052 26.438C26.6673 24.8759 26.6673 22.3617 26.6673 17.3334V13.3334C26.6673 8.3051 26.6673 5.79094 25.1052 4.22885C23.5431 2.66675 21.029 2.66675 16.0007 2.66675C10.9723 2.66675 8.45818 2.66675 6.89608 4.22885C6.02517 5.09975 5.63982 6.2666 5.46931 8.00008" stroke="#3174CD" stroke-width="2" stroke-linecap="round"/>
<path d="M22.6673 28V29.3333H21.334V28M10.6673 28V29.3333H9.33398V28" stroke="#3174CD" stroke-width="2" stroke-linejoin="round"/>
<path d="M26.6673 15.3333H20.0007M5.33398 15.3333H14.6673" stroke="#3174CD" stroke-width="2" stroke-linecap="round"/>
<path d="M22.666 9.33333L22.666 12" stroke="#3174CD" stroke-width="2" stroke-linecap="round"/>
<path d="M22.666 18.6666L22.666 21.3333" stroke="#3174CD" stroke-width="2" stroke-linecap="round"/>
</svg>
