<svg width="28" height="28" viewBox="0 0 28 28" fill="none" xmlns="http://www.w3.org/2000/svg">
<g clip-path="url(#clip0_4359_7205)">
<path d="M5.45416 14.2727C5.11248 14.2727 4.77846 14.374 4.49436 14.5639C4.21026 14.7537 3.98883 15.0235 3.85807 15.3392C3.72731 15.6549 3.6931 16.0022 3.75976 16.3373C3.82642 16.6725 3.99095 16.9803 4.23256 17.2219C4.47417 17.4635 4.78201 17.6281 5.11713 17.6947C5.45225 17.7614 5.79961 17.7272 6.11529 17.5964C6.43097 17.4656 6.70078 17.2442 6.89062 16.9601C7.08045 16.676 7.18177 16.342 7.18177 16.0003C7.17424 15.5445 6.98982 15.1094 6.66744 14.787C6.34507 14.4647 5.91001 14.2802 5.45416 14.2727ZM5.45416 16.5454C5.33718 16.5454 5.22283 16.5107 5.12558 16.4457C5.02832 16.3806 4.95253 16.2883 4.90781 16.1802C4.86309 16.0721 4.85143 15.9531 4.87432 15.8384C4.89721 15.7237 4.95362 15.6183 5.03641 15.5357C5.11919 15.453 5.22463 15.3968 5.33939 15.3741C5.45415 15.3514 5.57307 15.3632 5.68109 15.4081C5.78911 15.453 5.88139 15.5289 5.94625 15.6263C6.0111 15.7237 6.04562 15.8381 6.04544 15.9551C6.03504 16.1084 5.96938 16.2527 5.86064 16.3612C5.75191 16.4698 5.60748 16.5352 5.45416 16.5454Z" fill="#3174CD"/>
<path d="M5.45287 21.6819C5.00179 21.6924 4.57274 21.879 4.25744 22.2018C3.94215 22.5245 3.76562 22.9578 3.76562 23.409C3.76562 23.8602 3.94215 24.2935 4.25744 24.6163C4.57274 24.939 5.00179 25.1256 5.45287 25.1362C6.40814 25.1362 7.13521 24.3186 7.13521 23.3633C7.13571 23.1423 7.09252 22.9233 7.00814 22.719C6.92376 22.5148 6.79985 22.3292 6.64352 22.1729C6.48719 22.0167 6.30152 21.8929 6.09719 21.8086C5.89286 21.7243 5.67389 21.6813 5.45287 21.6819ZM5.45287 23.9546C5.33593 23.9546 5.22161 23.9199 5.12438 23.8549C5.02715 23.7899 4.95136 23.6976 4.90661 23.5896C4.86186 23.4815 4.85015 23.3626 4.87296 23.2479C4.89577 23.1332 4.95209 23.0279 5.03478 22.9452C5.11747 22.8625 5.22282 22.8062 5.33752 22.7834C5.45222 22.7606 5.5711 22.7723 5.67914 22.817C5.78718 22.8618 5.87952 22.9376 5.94449 23.0348C6.00946 23.132 6.04414 23.2463 6.04414 23.3633C5.99511 23.682 5.72634 23.9546 5.45287 23.9546Z" fill="#3174CD"/>
<path d="M13.9542 14.2727C13.6125 14.2727 13.2785 14.374 12.9944 14.5639C12.7103 14.7537 12.4888 15.0235 12.3581 15.3392C12.2273 15.6549 12.1931 16.0022 12.2598 16.3373C12.3264 16.6725 12.491 16.9803 12.7326 17.2219C12.9742 17.4635 13.282 17.6281 13.6171 17.6947C13.9523 17.7614 14.2996 17.7272 14.6153 17.5964C14.931 17.4656 15.2008 17.2442 15.3906 16.9601C15.5805 16.676 15.6818 16.342 15.6818 16.0003C15.6819 15.7734 15.6373 15.5487 15.5505 15.339C15.4637 15.1294 15.3365 14.9389 15.176 14.7784C15.0156 14.618 14.8251 14.4907 14.6154 14.404C14.4058 14.3172 14.1811 14.2726 13.9542 14.2727ZM13.9542 16.5454C13.8372 16.5454 13.7228 16.5107 13.6256 16.4457C13.5283 16.3806 13.4525 16.2883 13.4078 16.1802C13.3631 16.0721 13.3514 15.9531 13.3743 15.8384C13.3972 15.7237 13.4536 15.6183 13.5364 15.5357C13.6192 15.453 13.7246 15.3968 13.8394 15.3741C13.9542 15.3514 14.0731 15.3632 14.1811 15.4081C14.2891 15.453 14.3814 15.5289 14.4462 15.6263C14.5111 15.7237 14.5456 15.8381 14.5454 15.9551C14.5425 16.1109 14.4793 16.2595 14.369 16.3696C14.2587 16.4797 14.11 16.5427 13.9542 16.5454Z" fill="#3174CD"/>
<path d="M13.9542 21.6819C13.6125 21.6819 13.2785 21.7832 12.9944 21.973C12.7103 22.1629 12.4888 22.4327 12.3581 22.7484C12.2273 23.064 12.1931 23.4114 12.2598 23.7465C12.3264 24.0816 12.491 24.3895 12.7326 24.6311C12.9742 24.8727 13.282 25.0372 13.6171 25.1039C13.9523 25.1706 14.2996 25.1363 14.6153 25.0056C14.931 24.8748 15.2008 24.6534 15.3906 24.3693C15.5805 24.0852 15.6818 23.7512 15.6818 23.4095C15.682 23.1825 15.6375 22.9578 15.5508 22.7481C15.464 22.5384 15.3368 22.3478 15.1763 22.1873C15.0159 22.0269 14.8253 21.8996 14.6156 21.8129C14.4059 21.7262 14.1811 21.6816 13.9542 21.6819ZM13.9542 23.9545C13.8372 23.9545 13.7229 23.9199 13.6257 23.8549C13.5284 23.7899 13.4527 23.6976 13.4079 23.5895C13.3632 23.4815 13.3514 23.3626 13.3743 23.2479C13.3971 23.1332 13.4534 23.0279 13.5361 22.9452C13.6188 22.8625 13.7241 22.8062 13.8388 22.7834C13.9535 22.7606 14.0724 22.7723 14.1804 22.817C14.2885 22.8618 14.3808 22.9376 14.4458 23.0348C14.5108 23.132 14.5454 23.2463 14.5454 23.3633C14.5428 23.5193 14.4796 23.6681 14.3693 23.7784C14.259 23.8887 14.1102 23.9519 13.9542 23.9545Z" fill="#3174CD"/>
<path d="M22.501 14.2727C22.1594 14.2727 21.8253 14.374 21.5412 14.5639C21.2571 14.7537 21.0357 15.0235 20.905 15.3392C20.7742 15.6549 20.74 16.0022 20.8066 16.3373C20.8733 16.6725 21.0378 16.9803 21.2794 17.2219C21.521 17.4635 21.8289 17.6281 22.164 17.6947C22.4991 17.7614 22.8465 17.7272 23.1622 17.5964C23.4778 17.4656 23.7477 17.2442 23.9375 16.9601C24.1273 16.676 24.2286 16.342 24.2286 16.0003C24.2211 15.5445 24.0367 15.1094 23.7143 14.787C23.392 14.4647 22.9569 14.2802 22.501 14.2727ZM22.501 16.5454C22.3841 16.5454 22.2697 16.5107 22.1724 16.4457C22.0752 16.3806 21.9994 16.2883 21.9547 16.1802C21.91 16.0721 21.8983 15.9531 21.9212 15.8384C21.9441 15.7237 22.0005 15.6183 22.0833 15.5357C22.1661 15.453 22.2715 15.3968 22.3863 15.3741C22.501 15.3514 22.6199 15.3632 22.728 15.4081C22.836 15.453 22.9283 15.5289 22.9931 15.6263C23.058 15.7237 23.0925 15.8381 23.0923 15.9551C23.0933 16.2691 22.7745 16.5454 22.501 16.5454Z" fill="#3174CD"/>
<path d="M22.501 21.6819C22.1594 21.6819 21.8253 21.7832 21.5412 21.973C21.2571 22.1629 21.0357 22.4327 20.905 22.7484C20.7742 23.064 20.74 23.4114 20.8066 23.7465C20.8733 24.0816 21.0378 24.3895 21.2794 24.6311C21.521 24.8727 21.8289 25.0372 22.164 25.1039C22.4991 25.1706 22.8465 25.1363 23.1622 25.0056C23.4778 24.8748 23.7477 24.6534 23.9375 24.3693C24.1273 24.0852 24.2286 23.7512 24.2286 23.4095C24.2211 22.9536 24.0367 22.5186 23.7143 22.1962C23.392 21.8738 22.9569 21.6894 22.501 21.6819ZM22.501 23.9545C22.4215 23.9577 22.3421 23.9448 22.2676 23.9165C22.1932 23.8883 22.1252 23.8453 22.0678 23.7901C22.0104 23.7349 21.9647 23.6687 21.9335 23.5955C21.9023 23.5222 21.8862 23.4434 21.8862 23.3637C21.8862 23.2841 21.9023 23.2053 21.9335 23.132C21.9647 23.0588 22.0104 22.9926 22.0678 22.9374C22.1252 22.8822 22.1932 22.8392 22.2676 22.811C22.3421 22.7827 22.4215 22.7698 22.501 22.7729C22.5757 22.7756 22.6491 22.793 22.717 22.8242C22.7848 22.8554 22.8459 22.8997 22.8966 22.9546C22.9472 23.0094 22.9865 23.0738 23.0122 23.144C23.0379 23.2141 23.0494 23.2887 23.0461 23.3633C23.0471 23.682 22.7745 23.9545 22.501 23.9545Z" fill="#3174CD"/>
<path d="M27.0457 17.6835C27.2015 17.6808 27.3502 17.6178 27.4605 17.5077C27.5708 17.3976 27.634 17.249 27.6369 17.0932V14.2745C27.634 14.1186 27.5708 13.9699 27.4606 13.8596C27.3503 13.7493 27.2016 13.6861 27.0457 13.6832H25.914V9.13788C25.9206 9.07379 25.9046 9.00942 25.8688 8.95588L23.0049 0.411224C22.9105 0.183958 22.7323 0.00195312 22.4598 0.00195312C22.1873 0.00195312 22.0053 0.13775 21.9138 0.411224L19.0508 8.95588C19.0508 9.00209 19.0055 9.09262 19.0055 9.13788V13.6832H17.2779V9.13788C17.2845 9.07379 17.2685 9.00942 17.2327 8.95588L14.3687 0.411224C14.2744 0.183958 14.0962 0.00195312 13.8237 0.00195312C13.7007 0.00237491 13.5812 0.0424193 13.4829 0.116146C13.3845 0.189873 13.3125 0.293355 13.2776 0.411224L10.4147 8.95588C10.4147 9.00209 10.3685 9.09262 10.3685 9.13788V13.6832H8.63708V9.13788C8.64367 9.07379 8.62766 9.00942 8.59181 8.95588L5.72788 0.411224C5.63358 0.183958 5.4544 0.00195312 5.18187 0.00195312C4.90934 0.00195312 4.72734 0.13775 4.63681 0.411224L1.77287 8.95588C1.77287 9.00209 1.7276 9.09262 1.7276 9.13788V13.6832H0.591272C0.435365 13.6861 0.286651 13.7493 0.176389 13.8596C0.0661273 13.9699 0.00290135 14.1186 0 14.2745V17.1384C0.00290854 17.2942 0.0661662 17.4428 0.176453 17.553C0.286739 17.6631 0.435451 17.7261 0.591272 17.7287H1.7276V21.0925H0.591272C0.435365 21.0954 0.286651 21.1586 0.176389 21.2689C0.0661273 21.3791 0.00290135 21.5278 0 21.6838V24.5477C0.00290854 24.7035 0.0661662 24.8521 0.176453 24.9622C0.286739 25.0723 0.435451 25.1354 0.591272 25.138H1.7276V27.4107C1.73027 27.5667 1.79342 27.7155 1.90373 27.8258C2.01405 27.9361 2.16289 27.9993 2.31888 28.002H8.00054C8.15645 27.9991 8.30516 27.9358 8.41542 27.8256C8.52569 27.7153 8.58891 27.5666 8.59181 27.4107V25.1333H10.3185V27.406C10.3211 27.5619 10.3843 27.7108 10.4946 27.8211C10.6049 27.9314 10.7538 27.9946 10.9097 27.9972H16.5914C16.7473 27.9943 16.896 27.9311 17.0063 27.8208C17.1166 27.7106 17.1798 27.5619 17.1827 27.406V25.1333H18.9093V27.406C18.912 27.5619 18.9752 27.7108 19.0855 27.8211C19.1958 27.9314 19.3446 27.9946 19.5006 27.9972H25.319C25.4748 27.9943 25.6234 27.9311 25.7335 27.8208C25.8437 27.7105 25.9067 27.5618 25.9093 27.406V25.1333H27.041C27.1968 25.1306 27.3455 25.0676 27.4558 24.9575C27.5661 24.8474 27.6293 24.6988 27.6322 24.543V21.6819C27.6293 21.526 27.5661 21.3772 27.4558 21.267C27.3456 21.1567 27.1969 21.0935 27.041 21.0906H25.9093V17.6835H27.0457ZM26.4601 14.8639V16.5453H25.8688V14.8186H26.4601V14.8639ZM17.3637 17.6835H19.0913V21.0925H17.3637V17.6835ZM19.0913 14.8658V16.5471H17.3637V14.8205H19.0913V14.8658ZM8.86435 17.6835H10.591V21.0925H8.86435V17.6835ZM10.5457 14.8658V16.5471H8.81814V14.8205H10.5457V14.8658ZM1.45508 16.5471V14.8205H2.0454V16.5471H1.45508ZM1.45508 23.9564V22.2288H2.0454V23.9564H1.45508ZM7.72706 26.7751H3.18174V9.27274L5.4544 2.45474L7.72706 9.27274V26.7751ZM8.86435 23.9564V22.2288H10.591V23.9564H8.86435ZM16.2274 26.7751H11.6821V9.27274L13.9547 2.45474L16.2274 9.27274V26.7751ZM17.359 23.9564V22.2288H19.0866V23.9564H17.359ZM24.7683 26.7751H20.223V9.27274L22.4956 2.45474L24.7683 9.27274V26.7751ZM26.4506 22.2288V23.9564H25.8594V22.2288H26.4506Z" fill="#3174CD"/>
</g>
<defs>
<clipPath id="clip0_4359_7205">
<rect width="27.6369" height="28" fill="white"/>
</clipPath>
</defs>
</svg>
