<svg width="16" height="30" viewBox="0 0 16 30" fill="none" xmlns="http://www.w3.org/2000/svg">
<path d="M7.99935 10.9999C7.99935 4.99992 10.666 4.33325 13.3327 4.33325C13.3327 8.33325 11.3327 10.9999 7.99935 10.9999ZM7.99935 10.9999C7.99935 4.99992 5.33268 4.33325 2.66602 4.33325C2.66602 8.33325 4.66602 10.9999 7.99935 10.9999Z" stroke="#2D6ABB" stroke-width="2" stroke-linecap="round" stroke-linejoin="round"/>
<path d="M5.33398 4.33341C5.33398 4.33341 6.00065 2.33341 8.00065 1.66675C10.0007 2.33341 10.6673 4.33341 10.6673 4.33341" stroke="#2D6ABB" stroke-width="2" stroke-linecap="round" stroke-linejoin="round"/>
<path d="M8 11V19" stroke="#2D6ABB" stroke-width="2" stroke-linecap="round" stroke-linejoin="round"/>
<path d="M8 16.3334C8.33333 15.4445 9.6 13.6667 12 13.6667" stroke="#2D6ABB" stroke-width="2" stroke-linecap="round" stroke-linejoin="round"/>
<path d="M9.53514 19H6.46616C3.72965 19 2.36139 19 1.68612 19.7956C1.01085 20.5912 1.38674 21.7604 2.13852 24.0989L2.26337 24.4872C2.85493 26.3273 3.15072 27.2474 3.93863 27.7837L3.97395 27.8074C4.77067 28.3333 5.84733 28.3333 8.00065 28.3333C10.154 28.3333 11.2306 28.3333 12.0274 27.8074L12.0627 27.7837C12.8506 27.2474 13.1464 26.3273 13.7379 24.4872L13.8628 24.0989C14.6146 21.7604 14.9904 20.5912 14.3152 19.7956C13.6399 19 12.2717 19 9.53514 19Z" stroke="#2D6ABB" stroke-width="2" stroke-linecap="round" stroke-linejoin="round"/>
</svg>
