<svg width="32" height="32" viewBox="0 0 32 32" fill="none" xmlns="http://www.w3.org/2000/svg">
<circle cx="20.0007" cy="5.33342" r="2.66667" stroke="#3174CD" stroke-width="2"/>
<path d="M14.6667 21.3333V20.035C14.6667 19.8769 14.6667 19.7979 14.6638 19.7224C14.623 18.6414 14.146 17.6229 13.3416 16.8994C13.2854 16.8489 13.2247 16.7983 13.1033 16.6972C12.9255 16.549 12.8366 16.4749 12.7677 16.4086C11.7459 15.425 11.6728 13.8137 12.6014 12.7416C12.6639 12.6694 12.7458 12.5875 12.9095 12.4238L13.3485 11.9848C14.6185 10.7148 14.2042 8.56367 12.5534 7.85616C11.7891 7.52861 10.9129 7.59609 10.2077 8.03678L6 10.6666" stroke="#3174CD" stroke-width="2" stroke-linecap="round"/>
<path d="M4 20.6667H4.50491C6.31592 20.6667 8.05276 19.9473 9.33333 18.6667" stroke="#3174CD" stroke-width="2" stroke-linecap="round"/>
<path d="M16.666 13.3333C17.9642 13.766 19.3678 13.766 20.666 13.3333" stroke="#3174CD" stroke-width="2" stroke-linecap="round"/>
<path d="M25.9844 29.3334H4.11514C3.31481 29.3334 2.66602 28.6846 2.66602 27.8843C2.66602 27.1803 3.17192 26.5782 3.86534 26.4568L25.4073 22.687C27.4561 22.3285 29.3327 23.9051 29.3327 25.9851C29.3327 27.8343 27.8336 29.3334 25.9844 29.3334Z" stroke="#3174CD" stroke-width="2" stroke-linejoin="round"/>
<path d="M25.4957 13.3617L24.5068 13.2133L25.4957 13.3617ZM29.5294 10.3138C30.071 10.2055 30.4222 9.6787 30.3139 9.13714C30.2056 8.59558 29.6788 8.24436 29.1372 8.35267L29.5294 10.3138ZM24 23.3333L24.9889 23.4816L26.4847 13.51L25.4957 13.3617L24.5068 13.2133L23.0111 23.1849L24 23.3333ZM25.4957 13.3617L26.4847 13.51C26.7248 11.9095 27.9425 10.6312 29.5294 10.3138L29.3333 9.33325L29.1372 8.35267C26.7238 8.83536 24.8719 10.7793 24.5068 13.2133L25.4957 13.3617Z" fill="#3174CD"/>
</svg>
