<svg width="28" height="28" viewBox="0 0 28 28" fill="none" xmlns="http://www.w3.org/2000/svg">
<g clip-path="url(#clip0_4359_7217)">
<path d="M0.0020562 12.1356C0.19515 11.5652 0.686787 11.6693 1.1661 11.6522V10.7572C1.1661 10.0971 1.35372 9.90884 2.00901 9.90816C2.46504 9.90816 2.92107 9.91637 3.37847 9.90062C3.4668 9.90062 3.60374 9.81503 3.63044 9.73903C4.18576 8.15045 6.22283 7.61636 7.46493 8.84271C7.49712 8.87421 7.53341 8.90023 7.58956 8.94542C8.06887 8.46064 8.64198 8.16483 9.32945 8.16483C10.0169 8.16483 10.6003 8.43873 11.0666 8.93926C12.5251 7.89984 13.2975 7.89916 14.593 8.93926C15.0661 8.45995 15.6399 8.16415 16.3267 8.16346C17.0135 8.16278 17.5983 8.43735 18.0659 8.93652C19.5477 7.89847 20.3091 7.8971 21.5327 8.89065C21.9169 8.67975 22.2661 8.42366 22.657 8.28398C24.0101 7.80056 25.5466 8.83176 25.648 10.2697C25.6726 10.6237 25.6623 10.9798 25.6671 11.3351C25.6671 11.4331 25.6671 11.531 25.6671 11.6426H26.8414V11.3091C26.8414 9.95107 26.8414 8.59325 26.8414 7.23565C26.8388 7.12632 26.844 7.01693 26.8572 6.90835C26.8762 6.78197 26.9374 6.66571 27.0306 6.57834C27.1239 6.49097 27.2439 6.43759 27.3713 6.42682C27.4986 6.41606 27.6259 6.44854 27.7325 6.51901C27.8391 6.58949 27.9189 6.69384 27.9589 6.81523C27.9901 6.92917 28.0046 7.04702 28.0021 7.16513C28.0048 8.79615 28.0048 10.4272 28.0021 12.0582C28.0021 12.6197 27.7905 12.8299 27.2262 12.8326C26.7175 12.8326 26.2087 12.8326 25.6651 12.8326V13.2072C25.6651 17.2987 25.6651 21.3902 25.6651 25.4817C25.6651 26.3198 25.4049 27.0353 24.7064 27.5167C24.3874 27.7365 23.9861 27.8371 23.6225 27.996H22.9665C22.4503 27.831 21.9559 27.6262 21.6026 27.227C21.3574 27.4023 21.1568 27.5783 20.9281 27.7002C20.6994 27.8221 20.4289 27.8995 20.1749 27.996H19.4641C18.9472 27.831 18.4528 27.6262 18.0995 27.227C17.8544 27.4023 17.6544 27.5783 17.425 27.7002C17.1956 27.8221 16.9259 27.8995 16.6718 27.996H15.9707C15.4544 27.831 14.96 27.6256 14.5765 27.1935C14.1931 27.6523 13.6926 27.8337 13.1817 27.996H12.471C11.9547 27.831 11.4597 27.6262 11.0769 27.1935C10.6928 27.6523 10.1929 27.8337 9.68208 27.996H8.97065C8.45437 27.831 7.95999 27.6262 7.57722 27.1935C7.19309 27.6523 6.69324 27.8337 6.18175 27.996H5.58055C5.33063 27.9173 5.06496 27.87 4.8342 27.7543C3.92077 27.2976 3.50307 26.5293 3.50239 25.5228C3.50239 21.9914 3.50239 18.4602 3.50239 14.9293V14.5869C3.11826 14.5869 2.76494 14.5787 2.4123 14.5869C1.27565 14.6191 1.1257 14.5041 1.16404 13.3544C1.16952 13.1866 1.16404 13.0189 1.16404 12.8552C0.21569 12.7868 0.21569 12.7868 0 12.3609L0.0020562 12.1356ZM7.00205 18.0818V10.7298C7.00205 10.621 7.00205 10.5107 6.9952 10.4025C6.97327 10.151 6.87116 9.91318 6.70387 9.72408C6.53659 9.53498 6.313 9.4046 6.06603 9.35215C5.5429 9.25287 5.0047 9.50348 4.79997 9.99032C4.71095 10.2182 4.66699 10.4612 4.67054 10.7059C4.66324 15.6163 4.66187 20.5265 4.66643 25.4365C4.66512 25.5821 4.67588 25.7275 4.69861 25.8713C4.74989 26.1612 4.91092 26.4203 5.14823 26.5946C5.38554 26.7689 5.68089 26.8451 5.9729 26.8073C6.6008 26.7245 7 26.2506 7 25.57C7.00319 23.0744 7.00388 20.5783 7.00205 18.0818ZM10.5024 18.0818C10.5024 15.6314 10.5024 13.1807 10.5024 10.7298C10.5064 10.6207 10.5039 10.5114 10.4949 10.4025C10.4401 9.92801 10.1977 9.58085 9.74918 9.41104C9.30069 9.24123 8.88575 9.32956 8.53243 9.6548C8.24416 9.92116 8.16541 10.2711 8.16541 10.6483C8.16541 15.6044 8.16541 20.5603 8.16541 25.5159C8.16562 25.6434 8.17754 25.7706 8.20102 25.8959C8.25809 26.1751 8.4167 26.4232 8.64614 26.5922C8.87559 26.7612 9.15956 26.8391 9.44311 26.8107C10.0874 26.7361 10.499 26.2629 10.4997 25.57C10.5033 23.0753 10.5042 20.5797 10.5024 18.0832V18.0818ZM14.0021 18.0701V10.7202C14.0021 10.6107 14.002 10.5011 13.9938 10.3923C13.9699 10.1411 13.8657 9.90428 13.6968 9.71685C13.5279 9.52943 13.3031 9.40132 13.0558 9.35147C12.5292 9.25835 11.9951 9.51307 11.7938 9.99854C11.709 10.2186 11.6669 10.4529 11.6699 10.6887C11.663 15.6188 11.6619 20.5473 11.6664 25.4741C11.6654 25.6197 11.6783 25.7651 11.7048 25.9083C11.7645 26.1869 11.9255 26.4334 12.1567 26.6C12.3878 26.7666 12.6726 26.8415 12.9558 26.81C13.5981 26.7313 14.0007 26.2554 14.0014 25.5604C14.0036 23.0639 14.0039 20.5685 14.0021 18.0743V18.0701ZM17.5017 18.0647V12.9559C17.5017 12.1445 17.5086 11.3338 17.5017 10.523C17.4942 9.84721 17.0046 9.34736 16.3623 9.33709C15.6351 9.32545 15.1682 9.85338 15.1682 10.6942C15.1682 15.6133 15.1682 20.5327 15.1682 25.4522C15.166 25.607 15.1791 25.7615 15.2072 25.9137C15.2683 26.1921 15.4305 26.4379 15.6626 26.6034C15.8946 26.7689 16.1799 26.8423 16.463 26.8094C17.1032 26.7279 17.5017 26.252 17.5024 25.5542C17.5038 23.0586 17.5035 20.5626 17.5017 18.066V18.0647ZM21.0021 18.0647V12.7922C21.0021 12.039 21.0089 11.2804 21.0021 10.5244C20.9932 9.8479 20.5043 9.3501 19.8606 9.33983C19.1341 9.32887 18.6678 9.8568 18.6678 10.699C18.6678 15.6181 18.6678 20.5372 18.6678 25.4563C18.6664 25.602 18.6781 25.7475 18.7027 25.8911C18.7578 26.1755 18.9185 26.4285 19.1524 26.5992C19.3864 26.77 19.6764 26.8458 19.964 26.8114C20.6049 26.7299 21.0021 26.254 21.0027 25.5556C21.0032 23.0573 21.0034 20.5603 21.0034 18.0647H21.0021ZM24.5017 18.0756V11.4892C24.5017 11.1427 24.5134 10.7963 24.4962 10.4511C24.4545 9.62947 23.6301 9.10223 22.8892 9.42405C22.3414 9.66097 22.1627 10.1197 22.1634 10.686C22.1661 15.6161 22.1661 20.5445 22.1634 25.4714C22.1625 25.617 22.1751 25.7623 22.201 25.9055C22.2467 26.1253 22.356 26.3268 22.5152 26.485C22.6744 26.6433 22.8766 26.7513 23.0966 26.7957C23.8622 26.9443 24.4969 26.3924 24.4983 25.5631C24.5029 23.0671 24.504 20.5708 24.5017 18.0743V18.0756ZM2.35341 13.3845H3.48596V11.1003H2.35341V13.3845Z" fill="#3174CD"/>
<path d="M15.6951 2.10421C15.6984 2.68856 15.5055 3.2571 15.1473 3.71881C14.5133 4.54049 14.4818 5.10265 15.0179 6.01402C15.2439 6.39884 15.1734 6.75901 14.8392 6.92677C14.7131 6.99559 14.5654 7.01321 14.4267 6.97598C14.288 6.93875 14.1689 6.84952 14.0942 6.72683C13.3663 5.6518 13.1582 4.27481 14.1004 3.16623C14.6482 2.5219 14.6139 1.84607 14.2428 1.14217C14.1921 1.04631 14.1271 0.956605 14.0785 0.859374C13.9333 0.569048 14.0155 0.258181 14.2757 0.0958997C14.3381 0.0532996 14.4086 0.0238213 14.4828 0.00925102C14.557 -0.00531926 14.6334 -0.00467848 14.7073 0.0111338C14.7812 0.026946 14.8512 0.0576013 14.913 0.101243C14.9747 0.144884 15.027 0.200604 15.0665 0.265028C15.4518 0.803227 15.6704 1.44279 15.6951 2.10421Z" fill="#3174CD"/>
<path d="M20.1833 3.81183C20.1854 4.2282 20.037 4.63133 19.7656 4.94711C19.4137 5.36343 19.4075 5.51544 19.6718 5.99954C19.753 6.12925 19.8031 6.27594 19.8184 6.42818C19.8229 6.54331 19.7894 6.65672 19.7229 6.75082C19.6564 6.84492 19.5607 6.91444 19.4507 6.94858C19.1994 7.04444 18.9714 6.98966 18.8105 6.78424C18.2757 6.09951 18.0634 5.10734 18.7721 4.31031C19.0837 3.95973 19.0843 3.78444 18.8474 3.35169C18.7714 3.21474 18.6893 3.05383 18.6838 2.90182C18.6749 2.64436 18.8207 2.4499 19.0741 2.36842C19.3391 2.28282 19.5643 2.36842 19.7273 2.58685C20.0034 2.93761 20.1628 3.36593 20.1833 3.81183Z" fill="#3174CD"/>
<path d="M10.8409 3.89205C10.8477 4.27003 10.6964 4.63156 10.43 4.94928C10.0938 5.34848 10.0877 5.53198 10.3342 6.00445C10.423 6.17661 10.4652 6.36898 10.4568 6.5625C10.4498 6.66982 10.4026 6.77056 10.3245 6.84448C10.2464 6.9184 10.1432 6.96003 10.0357 6.96102C9.85557 6.96102 9.6077 6.91651 9.50225 6.79463C8.95036 6.15577 8.72644 5.141 9.40432 4.35014C9.75216 3.94341 9.76723 3.77907 9.47759 3.30592C9.34475 3.0875 9.28724 2.87181 9.4146 2.63831C9.62002 2.26034 10.0993 2.23706 10.3945 2.58627C10.6547 2.89851 10.8416 3.42575 10.8409 3.89205Z" fill="#3174CD"/>
</g>
<defs>
<clipPath id="clip0_4359_7217">
<rect width="28" height="27.9918" fill="white"/>
</clipPath>
</defs>
</svg>
