<svg width="32" height="32" viewBox="0 0 32 32" fill="none" xmlns="http://www.w3.org/2000/svg">
<path d="M14.666 22.6667H10.666C6.89478 22.6667 5.00916 22.6667 3.83759 21.4952C2.66602 20.3236 2.66602 18.438 2.66602 14.6667V13.3334C2.66602 8.3051 2.66602 5.79094 4.22811 4.22885C4.85425 3.60271 5.63335 3.22755 6.66602 3.00276M29.3327 11.3334C29.3327 8.22057 29.3327 6.66415 28.7029 5.48597C28.2057 4.55569 27.4437 3.79375 26.5135 3.2965C25.3353 2.66675 23.7789 2.66675 20.666 2.66675H13.3327C12.8671 2.66675 12.4231 2.66675 11.9993 2.66799" stroke="#3174CD" stroke-width="2" stroke-linecap="round"/>
<path d="M18.666 20.0001C18.666 17.4859 18.666 16.2288 19.4471 15.4478C20.2281 14.6667 21.4852 14.6667 23.9993 14.6667C26.5135 14.6667 27.7706 14.6667 28.5516 15.4478C29.3327 16.2288 29.3327 17.4859 29.3327 20.0001V24.0001C29.3327 26.5142 29.3327 27.7713 28.5516 28.5524C27.7706 29.3334 26.5135 29.3334 23.9993 29.3334C21.4852 29.3334 20.2281 29.3334 19.4471 28.5524C18.666 27.7713 18.666 26.5142 18.666 24.0001V20.0001Z" stroke="#3174CD" stroke-width="2"/>
<path d="M25.3327 26.6667H22.666" stroke="#3174CD" stroke-width="2" stroke-linecap="round"/>
<path d="M14.666 29.3334V30.3334C15.2183 30.3334 15.666 29.8857 15.666 29.3334H14.666ZM10.666 28.3334C10.1137 28.3334 9.66602 28.7811 9.66602 29.3334C9.66602 29.8857 10.1137 30.3334 10.666 30.3334V28.3334ZM15.666 22.6667C15.666 22.1145 15.2183 21.6667 14.666 21.6667C14.1137 21.6667 13.666 22.1145 13.666 22.6667H15.666ZM14.666 29.3334V28.3334H10.666V29.3334V30.3334H14.666V29.3334ZM14.666 29.3334H15.666V22.6667H14.666H13.666V29.3334H14.666Z" fill="#3174CD"/>
<path d="M14.666 17.3333H2.66602" stroke="#3174CD" stroke-width="2" stroke-linecap="round"/>
</svg>
