<svg width="32" height="32" viewBox="0 0 32 32" fill="none" xmlns="http://www.w3.org/2000/svg">
<path d="M6.375 23.8604V24.1604C6.375 24.9804 7.045 25.6504 7.865 25.6504C8.685 25.6504 9.355 24.9804 9.355 24.1604V23.8604" stroke="#3174CD" stroke-width="2"/>
<path d="M23.6562 23.8604V24.1604C23.6562 24.9804 24.3262 25.6504 25.1462 25.6504C25.9662 25.6504 26.6362 24.9804 26.6362 24.1604V23.8604" stroke="#3174CD" stroke-width="2"/>
<path d="M18.0063 6.06344C14.0603 5.97938 11.2684 5.94786 7.32233 6.16852L6.89813 6.18953C4.31346 6.18953 2.20231 8.43814 2.20231 11.2016C1.93595 13.6499 1.93595 16.1191 2.18258 18.5569L2.20231 18.704C2.20231 21.4675 4.30359 23.7161 6.908 23.7161L7.49991 23.7476C13.3697 24.0943 19.2592 24.0838 25.129 23.7161C27.7235 23.7161 29.8347 21.478 29.8347 18.704L29.8544 18.4413C30.0517 16.1296 30.0517 13.797 29.8347 11.4748C29.8347 8.71134 27.7235 6.33664 25.129 6.17903C24.8528 6.15801 24.5667 6.1475 24.2904 6.137" stroke="#3174CD" stroke-width="2" stroke-linecap="round"/>
<path d="M17 9H7C5.89543 9 5 9.97683 5 11.1818V18.8182C5 20.0232 5.89543 21 7 21H17C18.1046 21 19 20.0232 19 18.8182V11.1818C19 9.97683 18.1046 9 17 9Z" stroke="#3174CD" stroke-width="2"/>
<path d="M24.5988 16.1804C25.9188 16.1804 26.9788 17.2504 26.9788 18.5604C26.9788 19.8804 25.9088 20.9404 24.5988 20.9404C23.2788 20.9404 22.2188 19.8704 22.2188 18.5604C22.2188 17.2404 23.2888 16.1804 24.5988 16.1804Z" stroke="#3174CD" stroke-width="2"/>
<path d="M23.2031 13.1804H25.5831" stroke="#3174CD" stroke-width="2" stroke-linecap="round"/>
</svg>
