<svg width="32" height="32" viewBox="0 0 32 32" fill="none" xmlns="http://www.w3.org/2000/svg">
<path d="M16.1864 10.1599H9.15969C6.67969 10.1599 6.1197 11.3999 5.81303 12.9333L4.67969 18.3333H20.6797L19.5464 12.9333C19.213 11.3999 18.6664 10.1599 16.1864 10.1599Z" stroke="#3174CD" stroke-width="2" stroke-linecap="round" stroke-linejoin="round"/>
<path d="M22.6529 27.1465C22.7595 28.3198 21.8262 29.3332 20.6262 29.3332H18.7462C17.6662 29.3332 17.5195 28.8665 17.3195 28.3065L17.1195 27.7065C16.8395 26.8932 16.6528 26.3332 15.2128 26.3332H10.0929C8.65286 26.3332 8.43951 26.9599 8.18618 27.7065L7.98619 28.3065C7.79952 28.8798 7.65284 29.3332 6.55951 29.3332H4.6795C3.4795 29.3332 2.53285 28.3198 2.65285 27.1465L3.21285 21.0531C3.35952 19.5465 3.63951 18.3198 6.26617 18.3198H19.0262C21.6528 18.3198 21.9328 19.5465 22.0795 21.0531L22.6529 27.1465Z" stroke="#3174CD" stroke-width="2" stroke-linecap="round" stroke-linejoin="round"/>
<path d="M4.66602 15.3333H3.66602" stroke="#3174CD" stroke-width="2" stroke-linecap="round" stroke-linejoin="round"/>
<path d="M21.666 15.3333H20.666" stroke="#3174CD" stroke-width="2" stroke-linecap="round" stroke-linejoin="round"/>
<path d="M6.66602 22.3333H9.66602" stroke="#3174CD" stroke-width="2" stroke-linecap="round" stroke-linejoin="round"/>
<path d="M15.666 22.3333H18.666" stroke="#3174CD" stroke-width="2" stroke-linecap="round" stroke-linejoin="round"/>
<path d="M24.9462 11.6533C25.3195 10.7866 25.1862 9.61332 24.4928 8.58665C23.8128 7.55999 22.7728 6.98665 21.8262 6.99998" stroke="#3174CD" stroke-width="2" stroke-linecap="round" stroke-linejoin="round"/>
<path d="M29.0942 12.9734C29.6542 10.9601 29.2542 8.49344 27.8275 6.36011C26.4008 4.22677 24.2675 2.92008 22.1875 2.66675" stroke="#3174CD" stroke-width="2" stroke-linecap="round" stroke-linejoin="round"/>
</svg>
