<svg width="32" height="32" viewBox="0 0 32 32" fill="none" xmlns="http://www.w3.org/2000/svg">
<path d="M29.3327 16.0001C29.3327 19.6925 27.8317 23.0343 25.4068 25.4487C22.9955 27.8495 19.6707 29.3334 15.9993 29.3334C8.63555 29.3334 2.66602 23.3639 2.66602 16.0001C2.66602 12.4411 4.06041 9.20782 6.33268 6.81675C8.76195 4.26045 12.1945 2.66675 15.9993 2.66675C19.6707 2.66675 22.9955 4.15063 25.4068 6.55138C27.8317 8.96588 29.3327 12.3077 29.3327 16.0001Z" stroke="#3174CD" stroke-width="2" stroke-linecap="round" stroke-linejoin="round"/>
<path d="M29.3342 15.9998C27.3886 15.9998 22.0217 15.266 17.2185 17.3752C12.0009 19.6666 8.22245 23.2208 6.57617 25.4312" stroke="#3174CD" stroke-width="2" stroke-linecap="round" stroke-linejoin="round"/>
<path d="M11 3.6355C13.0869 5.56142 17.6402 10.4653 19.3333 15.333C21.0265 20.2007 21.6539 26.1857 22.0404 27.8895" stroke="#3174CD" stroke-width="2" stroke-linecap="round" stroke-linejoin="round"/>
<path d="M2.77148 14.3336C5.29 14.4854 11.9572 14.6224 16.2239 12.8002C20.4906 10.978 24.1621 7.62665 25.4214 6.56372" stroke="#3174CD" stroke-width="2" stroke-linecap="round" stroke-linejoin="round"/>
<path d="M3.66602 21.0754C4.84046 23.9262 6.97455 26.2806 9.66602 27.736" stroke="#3174CD" stroke-width="2" stroke-linecap="round" stroke-linejoin="round"/>
<path d="M2.66602 15.9997C2.66602 12.4408 4.06041 9.20747 6.33268 6.81641" stroke="#3174CD" stroke-width="2" stroke-linecap="round" stroke-linejoin="round"/>
<path d="M16.0007 2.66675C12.1959 2.66675 8.76325 4.26045 6.33398 6.81675" stroke="#3174CD" stroke-width="2" stroke-linecap="round" stroke-linejoin="round"/>
<path d="M21.334 3.77612C22.8629 4.44412 24.2423 5.39055 25.4081 6.55131C27.8331 8.9658 29.334 12.3076 29.334 16C29.334 17.6418 29.0373 19.2142 28.4945 20.6667" stroke="#3174CD" stroke-width="2" stroke-linecap="round" stroke-linejoin="round"/>
<path d="M16 29.3338C19.6714 29.3338 22.9962 27.85 25.4075 25.4492" stroke="#3174CD" stroke-width="2" stroke-linecap="round" stroke-linejoin="round"/>
</svg>
