<svg width="30" height="26" viewBox="0 0 30 26" fill="none" xmlns="http://www.w3.org/2000/svg">
<path d="M28.3327 24.9999H26.9993C25.0642 24.9999 23.37 23.8547 22.9993 22.3333C22.6287 23.8547 20.9345 24.9999 18.9994 24.9999C17.0642 24.9999 15.37 23.8547 14.9993 22.3333C14.6287 23.8547 12.9345 24.9999 10.9993 24.9999C9.06418 24.9999 7.36997 23.8547 6.99935 22.3333C6.62873 23.8547 4.93452 24.9999 2.99935 24.9999H1.66602" stroke="#3174CD" stroke-width="2" stroke-linecap="round" stroke-linejoin="round"/>
<path d="M24.332 1L23.9788 1.11774C22.2188 1.70442 21.3387 1.99776 20.8354 2.69613C20.332 3.3945 20.332 4.32213 20.332 6.17738L20.332 19.6667" stroke="#3174CD" stroke-width="2" stroke-linecap="round" stroke-linejoin="round"/>
<path d="M13.666 1L13.3128 1.11774C11.5527 1.70442 10.6727 1.99776 10.1694 2.69613C9.66602 3.3945 9.66602 4.32213 9.66602 6.17738L9.66602 19.6667" stroke="#3174CD" stroke-width="2" stroke-linecap="round" stroke-linejoin="round"/>
<path d="M9.66602 6.33325H20.3327M9.66602 11.6666H20.3327M9.66602 16.9999H20.3327" stroke="#3174CD" stroke-width="2" stroke-linecap="round" stroke-linejoin="round"/>
</svg>
