<svg width="30" height="30" viewBox="0 0 30 30" fill="none" xmlns="http://www.w3.org/2000/svg">
<path d="M1.66602 6.99984C1.66602 2.58739 2.5869 1.6665 6.99935 1.6665H22.9993C27.4118 1.6665 28.3327 2.58739 28.3327 6.99984V22.9998C28.3327 27.4123 27.4118 28.3332 22.9993 28.3332H6.99935C2.5869 28.3332 1.66602 27.4123 1.66602 22.9998V6.99984Z" stroke="#3174CD" stroke-width="2" stroke-linecap="round" stroke-linejoin="round"/>
<path d="M1.66602 9.6665H28.3327" stroke="#3174CD" stroke-width="2"/>
<path d="M5.66602 5.6665H10.9993" stroke="#3174CD" stroke-width="2" stroke-linecap="round"/>
<path d="M24.334 5.67844V5.6665" stroke="#3174CD" stroke-width="2.66667" stroke-linecap="round" stroke-linejoin="round"/>
<circle cx="11" cy="18.9998" r="4" stroke="#3174CD" stroke-width="2" stroke-linecap="round" stroke-linejoin="round"/>
<path d="M19 14.9998L19.1834 14.0167C18.8912 13.9622 18.5898 14.0405 18.361 14.2305C18.1323 14.4205 18 14.7024 18 14.9998L19 14.9998ZM18 22.9998C18 23.552 18.4477 23.9998 19 23.9998C19.5523 23.9998 20 23.552 20 22.9998H18ZM21.7976 16.6979L20.8199 16.908V16.908L21.7976 16.6979ZM22.3161 19.1112L23.2938 18.9012L23.2938 18.9012L22.3161 19.1112ZM20.4422 19.8196L20.4402 18.8196H20.4402L20.4422 19.8196ZM18.7565 18.9187C18.2209 19.0532 17.8956 19.5965 18.0301 20.1321C18.1646 20.6678 18.7078 20.993 19.2435 20.8586L18.7565 18.9187ZM19 14.9998L18 14.9998L18 22.9998H19H20L20 14.9998L19 14.9998ZM21.7976 16.6979L20.8199 16.908L21.3384 19.3213L22.3161 19.1112L23.2938 18.9012L22.7753 16.4879L21.7976 16.6979ZM20.4422 19.8196L20.4402 18.8196C20.0555 18.8204 19.74 18.8209 19.4884 18.8304C19.2406 18.8399 18.9924 18.8595 18.7565 18.9187L19 19.8886L19.2435 20.8586C19.2731 20.8511 19.3538 20.837 19.5646 20.829C19.7716 20.8211 20.0445 20.8204 20.4443 20.8196L20.4422 19.8196ZM21.7976 16.6979L22.7753 16.4879C22.6027 15.6841 22.0241 15.1334 21.407 14.7738C20.7857 14.4118 20.0092 14.1708 19.1834 14.0167L19 14.9998L18.8166 15.9828C19.519 16.1139 20.0503 16.2981 20.4002 16.5019C20.7543 16.7083 20.8105 16.8641 20.8199 16.908L21.7976 16.6979ZM22.3161 19.1112L21.3384 19.3213C21.3336 19.2988 21.3074 19.1023 21.4624 18.9032C21.5828 18.7484 21.7054 18.7381 21.6218 18.76C21.5525 18.7781 21.4228 18.797 21.2019 18.8077C20.9871 18.8181 20.7385 18.819 20.4402 18.8196L20.4422 19.8196L20.4443 20.8196C20.9723 20.8185 21.6334 20.8242 22.1278 20.6949C22.3852 20.6276 22.766 20.4845 23.0407 20.1316C23.3499 19.7343 23.3739 19.2742 23.2938 18.9012L22.3161 19.1112Z" fill="#3174CD"/>
</svg>
