<svg width="32" height="32" viewBox="0 0 32 32" fill="none" xmlns="http://www.w3.org/2000/svg">
<path d="M29.3327 21.03C27.2158 20.5312 26.1267 19.3057 25.2259 17.9428C24.6614 17.0887 23.42 17.1406 22.8067 17.9604C21.4048 19.8345 19.3119 21.3334 15.9993 21.3334C12.6573 21.3334 10.5568 19.4262 9.15469 17.6315C8.56896 16.8817 7.44758 16.8917 6.93492 17.6932C6.00039 19.1543 4.91138 20.5009 2.66602 21.03" stroke="#3174CD" stroke-width="2" stroke-linecap="round" stroke-linejoin="round"/>
<path d="M29.3327 27.6965C27.2158 27.1977 26.1267 25.9722 25.2259 24.6093C24.6614 23.7552 23.42 23.8071 22.8067 24.6269C21.4048 26.501 19.3119 27.9999 15.9993 27.9999C12.6573 27.9999 10.5568 26.0927 9.15469 24.298C8.56896 23.5482 7.44758 23.5582 6.93492 24.3597C6.00039 25.8208 4.91138 27.1674 2.66602 27.6965" stroke="#3174CD" stroke-width="2" stroke-linecap="round" stroke-linejoin="round"/>
<path d="M5.33398 15.3333L9.96989 12.5518C11.0318 11.9146 11.2653 10.4754 10.4594 9.53519L9.14246 7.99875C8.49816 7.24707 8.54122 6.12607 9.24126 5.42603C10.014 4.65325 11.2786 4.69273 12.0016 5.5122L20.6673 15.3333" stroke="#3174CD" stroke-width="2" stroke-linecap="round" stroke-linejoin="round"/>
<path d="M22.6673 10.6667C24.5083 10.6667 26.0007 9.17428 26.0007 7.33333C26.0007 5.49238 24.5083 4 22.6673 4C20.8264 4 19.334 5.49238 19.334 7.33333C19.334 9.17428 20.8264 10.6667 22.6673 10.6667Z" stroke="#3174CD" stroke-width="2" stroke-linecap="round" stroke-linejoin="round"/>
</svg>
