<svg width="26" height="30" viewBox="0 0 26 30" fill="none" xmlns="http://www.w3.org/2000/svg">
<path d="M1 17.667L2.33333 24.3337M2.33333 24.3337L1 28.3337M2.33333 24.3337H5.8705C6.80978 24.3337 7.03127 24.5213 7.18569 25.4478L7.66667 28.3337" stroke="#3174CD" stroke-width="2" stroke-linecap="round" stroke-linejoin="round"/>
<path d="M25 17.667L23.6667 24.3337M23.6667 24.3337L25 28.3337M23.6667 24.3337H20.1295C19.1902 24.3337 18.9687 24.5213 18.8143 25.4478L18.3333 28.3337" stroke="#3174CD" stroke-width="2" stroke-linecap="round" stroke-linejoin="round"/>
<path d="M13 12.3337V28.3337" stroke="#3174CD" stroke-width="2" stroke-linecap="round" stroke-linejoin="round"/>
<path d="M3.13394 8.87669C5.89348 7.58457 8.67017 5.53168 10.7184 3.4857C11.9322 2.27323 12.5391 1.66699 13 1.66699C13.4609 1.66699 14.0678 2.27323 15.2816 3.4857C17.3298 5.53168 20.1065 7.58457 22.8661 8.87669C23.8045 9.31609 24.3771 9.85812 24.8307 10.9134C25.1777 11.7206 25.022 12.3337 24.0761 12.3337H1.92393C0.977978 12.3337 0.822296 11.7206 1.16929 10.9134C1.62291 9.85813 2.19551 9.31609 3.13394 8.87669Z" stroke="#3174CD" stroke-width="2" stroke-linecap="round" stroke-linejoin="round"/>
<path d="M11.666 28.3337H14.3327" stroke="#3174CD" stroke-width="2" stroke-linecap="round" stroke-linejoin="round"/>
<path d="M9 19.0002H17" stroke="#3174CD" stroke-width="2" stroke-linecap="round" stroke-linejoin="round"/>
</svg>
