<svg width="32" height="32" viewBox="0 0 32 32" fill="none" xmlns="http://www.w3.org/2000/svg">
<path d="M28 18.6667C28 23.6951 28 26.2092 26.4379 27.7713C24.8758 29.3334 22.3616 29.3334 17.3333 29.3334H14.6667C9.63835 29.3334 7.12419 29.3334 5.5621 27.7713C4 26.2092 4 23.6951 4 18.6667V13.3334C4 8.3051 4 5.79094 5.5621 4.22885C7.12419 2.66675 9.63835 2.66675 14.6667 2.66675H17.3333C22.3616 2.66675 24.8758 2.66675 26.4379 4.22885C28 5.79094 28 8.3051 28 13.3334" stroke="#3174CD" stroke-width="2" stroke-linecap="round"/>
<path d="M22.6673 18.6667C22.6673 22.3486 19.6825 25.3333 16.0007 25.3333C12.3188 25.3333 9.33398 22.3486 9.33398 18.6667C9.33398 14.9848 12.3188 12 16.0007 12C19.6825 12 22.6673 14.9848 22.6673 18.6667Z" stroke="#3174CD" stroke-width="2"/>
<path d="M21.3327 8H15.9993M11.9993 8H10.666" stroke="#3174CD" stroke-width="2" stroke-linecap="round"/>
<path d="M9.64558 19.1499C10.7849 19.7193 12.0899 20.6945 14.2987 21.0926C17.4479 21.6603 17.1335 18.8941 20.2828 19.4614C21.243 19.6344 21.8908 19.9268 22.3488 20.2406" stroke="#3174CD" stroke-width="2" stroke-linecap="round"/>
</svg>
