<svg width="32" height="32" viewBox="0 0 32 32" fill="none" xmlns="http://www.w3.org/2000/svg">
<path d="M12.2266 5.33341C12.7757 3.77982 14.2573 2.66675 15.999 2.66675C17.7406 2.66675 19.2222 3.77982 19.7713 5.33341" stroke="#3174CD" stroke-width="2" stroke-linecap="round"/>
<path d="M27.3328 8H4.66602" stroke="#3174CD" stroke-width="2" stroke-linecap="round"/>
<path d="M24.4976 20.5321C24.2616 24.0719 24.1437 25.8419 22.9903 26.9209C21.837 27.9999 20.0631 27.9999 16.5154 27.9999H15.4842C11.9365 27.9999 10.1626 27.9999 9.00926 26.9209C7.85591 25.8419 7.73792 24.0719 7.50193 20.5321L6.88867 11.3333M25.1109 11.3333L24.8442 15.3333" stroke="#3174CD" stroke-width="2" stroke-linecap="round"/>
<path d="M12.666 14.6667L13.3327 21.3334" stroke="#3174CD" stroke-width="2" stroke-linecap="round"/>
<path d="M19.3327 14.6667L18.666 21.3334" stroke="#3174CD" stroke-width="2" stroke-linecap="round"/>
</svg>
