<svg width="153" height="25" viewBox="0 0 153 25" fill="none" xmlns="http://www.w3.org/2000/svg">
<path d="M20.4679 12.4374C20.8904 12.4374 21.1967 12.5313 21.389 12.7146C21.5857 12.8934 21.684 13.1326 21.684 13.4299C21.684 13.9083 21.541 14.3308 21.2548 14.6997C20.9687 15.0708 20.5216 15.263 19.9135 15.2809C18.4404 15.3167 17.1326 15.2071 15.9881 14.9501C14.6826 17.693 13.1021 19.9709 11.2489 21.7817C9.40014 23.5946 7.54694 24.5 5.68703 24.5C3.77347 24.5 2.34501 23.389 1.40387 21.1647C0.467213 18.9359 0 15.9247 0 12.1334C0 8.89195 0.228018 5.97913 0.688524 3.39717C0.853949 2.44486 1.09091 1.79657 1.39493 1.45678C1.69896 1.11699 2.21758 0.947094 2.95082 0.947094C4.16691 0.947094 4.77496 1.47243 4.77496 2.52086C4.77496 2.62817 4.75708 2.83159 4.72131 3.12891C4.16691 6.44411 3.88971 9.44634 3.88971 12.1334C3.88971 14.9478 4.12444 17.0872 4.59612 18.5536C5.06557 20.0156 5.77198 20.7444 6.71535 20.7444C7.66765 20.7444 8.70491 20.0827 9.82712 18.7593C10.9538 17.4359 11.9866 15.7705 12.9299 13.7608C11.8033 13.0589 10.9538 12.1513 10.3815 11.0425C9.8137 9.9292 9.53203 8.64381 9.53203 7.18852C9.53203 5.73547 9.75558 4.50596 10.2027 3.50447C10.6542 2.49851 11.2712 1.74739 12.0536 1.25112C12.8405 0.750372 13.7101 0.5 14.6647 0.5C15.845 0.5 16.7794 0.924739 17.4724 1.76975C18.1632 2.61699 18.5097 3.7772 18.5097 5.24813C18.5097 7.37183 18.0469 9.6833 17.1237 12.187C18.1006 12.3547 19.2161 12.4374 20.4679 12.4374ZM12.3219 6.9918C12.3219 8.79806 12.8986 10.1349 14.0566 10.9978C14.7764 8.93666 15.1386 7.23099 15.1386 5.88301C15.1386 5.11401 15.0358 4.55067 14.8346 4.19299C14.6311 3.83085 14.3539 3.64754 14.003 3.64754C13.5067 3.64754 13.1021 3.94039 12.7869 4.52384C12.4761 5.10283 12.3219 5.92548 12.3219 6.9918Z" fill="#004AAD"/>
<path d="M25.9681 24.5C24.6984 24.5 23.5493 24.187 22.5255 23.5611C21.5061 22.9351 20.7014 22.0298 20.1112 20.8427C19.521 19.6579 19.226 18.2541 19.226 16.6311C19.226 13.8368 19.8251 11.2459 21.0233 8.86064C22.2215 6.47092 23.9875 4.55513 26.3258 3.11102C28.6619 1.66914 31.4696 0.947083 34.749 0.947083C35.594 0.947083 36.5016 1.01415 37.4674 1.1438C38.4331 1.26899 39.3116 1.46124 40.1052 1.71608C40.6238 1.86586 40.8832 2.23471 40.8832 2.82488C40.8832 3.30327 40.6999 3.75259 40.3377 4.1751C39.98 4.59984 39.562 4.80997 39.0858 4.80997C38.9361 4.80997 38.8265 4.80103 38.755 4.78314C37.7937 4.56407 36.9756 4.40312 36.296 4.30028C35.6164 4.19969 34.8966 4.14827 34.141 4.14827C31.8027 4.14827 29.8154 4.71608 28.1768 5.84723C26.5359 6.98061 25.3109 8.47614 24.5017 10.336C23.6902 12.196 23.2856 14.2034 23.2856 16.3539C23.2856 17.9232 23.5918 19.1348 24.2066 19.9933C24.8258 20.8472 25.6328 21.272 26.6298 21.272C27.7498 21.272 28.7334 20.8137 29.5806 19.8949C30.4256 18.9717 31.1991 17.4784 31.8966 15.415C32.5985 13.3539 33.2938 10.5551 33.98 7.01861C34.0873 6.50669 34.3042 6.15796 34.6328 5.97241C34.9659 5.7891 35.4107 5.69522 35.9651 5.69522C37.2706 5.69522 37.9234 6.11995 37.9234 6.96496C37.9234 7.11474 37.8966 7.30028 37.8429 7.51936C37.3645 9.30326 36.9264 11.2749 36.5285 13.4389C36.135 15.6028 35.9383 17.2481 35.9383 18.3748C35.9383 19.3651 36.0836 20.0872 36.3765 20.5387C36.6738 20.9925 37.1276 21.2183 37.7356 21.2183C38.3191 21.2183 38.8802 21.0216 39.4167 20.6281C39.9532 20.2302 40.6261 19.5506 41.4376 18.5894C41.6566 18.3345 41.9048 18.2049 42.1797 18.2049C42.4167 18.2049 42.6045 18.3167 42.7431 18.5357C42.8794 18.7571 42.9487 19.0611 42.9487 19.4478C42.9487 20.1699 42.7744 20.7421 42.4301 21.1647C41.5225 22.2511 40.6373 23.0782 39.7744 23.6505C38.9092 24.2183 37.8519 24.5 36.6 24.5C35.3124 24.5 34.2707 24.1289 33.4793 23.3822C32.6857 22.6378 32.1872 21.5849 31.986 20.2258C30.6268 23.076 28.6194 24.5 25.9681 24.5Z" fill="#004AAD"/>
<path d="M51.9009 24.5C49.7124 24.5 47.8078 24.1021 46.1871 23.3018C44.5641 22.5037 43.3212 21.3681 42.4583 19.8949C41.5932 18.4173 41.1617 16.7027 41.1617 14.7533C41.1617 12.0484 41.6714 9.64529 42.6908 7.54618C43.7146 5.44931 45.1006 3.82413 46.8488 2.67286C48.5947 1.52383 50.5373 0.947083 52.6789 0.947083C54.664 0.947083 56.1707 1.45677 57.2035 2.47614C58.234 3.49552 58.7504 4.84574 58.7504 6.52681C58.7504 7.64901 58.5537 8.55214 58.1602 9.2362C57.7668 9.91578 57.199 10.2556 56.4613 10.2556C55.9471 10.2556 55.5425 10.1371 55.2452 9.89789C54.9523 9.65423 54.807 9.30326 54.807 8.84275C54.807 8.67733 54.8428 8.37331 54.9143 7.93068C55.0261 7.37629 55.0842 6.9359 55.0842 6.60729C55.0842 4.93292 54.19 4.09462 52.4017 4.09462C51.1856 4.09462 50.0231 4.49253 48.9143 5.28389C47.81 6.07077 46.9203 7.23322 46.2407 8.77122C45.5611 10.3092 45.2214 12.1378 45.2214 14.2526C45.2214 16.4657 45.8383 18.1758 47.0723 19.3852C48.3063 20.5901 50.126 21.1915 52.5358 21.1915C53.734 21.1915 54.9434 21.0395 56.1662 20.7354C57.3935 20.4314 58.7526 19.9664 60.2437 19.3405C60.5231 19.2287 60.7534 19.1706 60.9322 19.1706C61.2295 19.1706 61.4508 19.2824 61.5939 19.5015C61.7415 19.7228 61.8175 20.0089 61.8175 20.3599C61.8175 21.4866 61.2094 22.3159 59.9933 22.8457C58.6878 23.418 57.3286 23.8383 55.9158 24.1065C54.5075 24.3681 53.1707 24.5 51.9009 24.5Z" fill="#004AAD"/>
<path d="M66.6301 24.5C65.3604 24.5 64.2113 24.187 63.1875 23.5611C62.1681 22.9351 61.3633 22.0298 60.7732 20.8427C60.183 19.6579 59.8879 18.2541 59.8879 16.6311C59.8879 13.8368 60.487 11.2459 61.6853 8.86064C62.8835 6.47092 64.6495 4.55513 66.9878 3.11102C69.3238 1.66914 72.1316 0.947083 75.411 0.947083C76.256 0.947083 77.1636 1.01415 78.1294 1.1438C79.0951 1.26899 79.9736 1.46124 80.7672 1.71608C81.2858 1.86586 81.5452 2.23471 81.5452 2.82488C81.5452 3.30327 81.3618 3.75259 80.9997 4.1751C80.642 4.59984 80.224 4.80997 79.7478 4.80997C79.5981 4.80997 79.4885 4.80103 79.417 4.78314C78.4557 4.56407 77.6376 4.40312 76.958 4.30028C76.2784 4.19969 75.5586 4.14827 74.803 4.14827C72.4647 4.14827 70.4774 4.71608 68.8388 5.84723C67.1979 6.98061 65.9729 8.47614 65.1636 10.336C64.3522 12.196 63.9475 14.2034 63.9475 16.3539C63.9475 17.9232 64.2538 19.1348 64.8686 19.9933C65.4878 20.8472 66.2948 21.272 67.2918 21.272C68.4118 21.272 69.3954 20.8137 70.2426 19.8949C71.0876 18.9717 71.8611 17.4784 72.5586 15.415C73.2605 13.3539 73.9557 10.5551 74.642 7.01861C74.7493 6.50669 74.9662 6.15796 75.2948 5.97241C75.6279 5.7891 76.0727 5.69522 76.6271 5.69522C77.9326 5.69522 78.5854 6.11995 78.5854 6.96496C78.5854 7.11474 78.5586 7.30028 78.5049 7.51936C78.0265 9.30326 77.5884 11.2749 77.1905 13.4389C76.797 15.6028 76.6003 17.2481 76.6003 18.3748C76.6003 19.3651 76.7456 20.0872 77.0384 20.5387C77.3358 20.9925 77.7896 21.2183 78.3976 21.2183C78.9811 21.2183 79.5422 21.0216 80.0787 20.6281C80.6152 20.2302 81.2881 19.5506 82.0995 18.5894C82.3186 18.3345 82.5668 18.2049 82.8417 18.2049C83.0787 18.2049 83.2665 18.3167 83.4051 18.5357C83.5414 18.7571 83.6107 19.0611 83.6107 19.4478C83.6107 20.1699 83.4364 20.7421 83.0921 21.1647C82.1845 22.2511 81.2992 23.0782 80.4364 23.6505C79.5712 24.2183 78.5139 24.5 77.262 24.5C75.9744 24.5 74.9326 24.1289 74.1413 23.3822C73.3477 22.6378 72.8492 21.5849 72.648 20.2258C71.2888 23.076 69.2814 24.5 66.6301 24.5Z" fill="#004AAD"/>
<path d="M86.4645 24.5C85.7782 24.5 85.2887 24.3524 84.998 24.0529C84.7052 23.7489 84.5599 23.1721 84.5599 22.3182C84.5599 21.7526 84.6135 21.0641 84.7208 20.2526C84.8326 19.4433 85.0271 18.2183 85.3021 16.5775C85.3378 16.3584 85.4831 15.4597 85.7402 13.886C86.0018 12.3122 86.2343 10.658 86.4377 8.92323C86.6165 7.45229 86.7059 6.34797 86.7059 5.61474C86.7059 4.78762 86.4042 4.37182 85.8028 4.37182C85.3378 4.37182 84.7589 4.61772 84.0681 5.10505C83.3818 5.58791 82.6419 6.36362 81.8505 7.42994C81.5934 7.78314 81.3073 7.95751 80.9921 7.95751C80.735 7.95751 80.5092 7.83679 80.3125 7.59089C80.1203 7.34052 80.0264 7.05885 80.0264 6.74141C80.0264 6.43292 80.08 6.13337 80.1873 5.84723C80.2991 5.56109 80.5025 5.21683 80.7954 4.80997C81.7007 3.57599 82.7045 2.62592 83.8088 1.95751C84.9109 1.28464 86.0711 0.947083 87.2872 0.947083C88.2998 0.947083 89.0599 1.26005 89.5673 1.88598C90.0726 2.51191 90.3274 3.42175 90.3274 4.61325C90.3274 5.68627 90.1799 7.23322 89.8893 9.25408C90.8058 6.53128 91.9749 4.46571 93.3945 3.05736C94.8118 1.65125 96.4794 0.947083 98.393 0.947083C99.8997 0.947083 101.035 1.37629 101.8 2.23471C102.569 3.08866 102.953 4.23322 102.953 5.66839C102.953 6.47986 102.833 7.46347 102.596 8.61921L100.906 16.5238C100.72 17.4426 100.628 18.2317 100.628 18.8934C100.628 19.6691 100.807 20.2503 101.165 20.6371C101.527 21.0261 102.032 21.2183 102.676 21.2183C103.284 21.2183 103.877 21.0171 104.456 20.6103C105.032 20.2056 105.719 19.5328 106.512 18.5894C106.731 18.3345 106.982 18.2049 107.263 18.2049C107.5 18.2049 107.688 18.3167 107.827 18.5357C107.963 18.7571 108.032 19.0611 108.032 19.4478C108.032 20.1699 107.856 20.7421 107.505 21.1647C106.55 22.3226 105.602 23.1676 104.661 23.7041C103.725 24.2362 102.741 24.5 101.71 24.5C100.141 24.5 98.9161 24.035 98.0353 23.105C97.1523 22.1751 96.7119 20.9299 96.7119 19.3673C96.7119 18.7593 96.7611 18.0976 96.8639 17.3822C96.9645 16.6624 97.1344 15.7503 97.3736 14.646L98.4734 9.58493C98.5137 9.42397 98.5807 9.13336 98.6702 8.70863C98.7596 8.27942 98.8311 7.87703 98.8848 7.50147C98.9429 7.12592 98.9742 6.75483 98.9742 6.38374C98.9742 5.79358 98.8065 5.32636 98.4734 4.97987C98.1448 4.6289 97.6776 4.4523 97.0696 4.4523C95.9608 4.4523 94.8542 5.04246 93.7521 6.22279C92.6478 7.39864 91.6262 9.29879 90.6851 11.9277C89.7484 14.5521 89.0129 17.9053 88.4764 21.9873C88.3512 22.9307 88.1635 23.5857 87.9131 23.9545C87.6627 24.3189 87.1799 24.5 86.4645 24.5Z" fill="#004AAD"/>
<path d="M127.176 18.2049C127.413 18.2049 127.601 18.3167 127.739 18.5357C127.883 18.7571 127.954 19.0611 127.954 19.4478C127.954 20.1699 127.777 20.7421 127.426 21.1647C126.394 22.3986 125.397 23.2638 124.431 23.7578C123.465 24.2541 122.298 24.5 120.935 24.5C119.973 24.5 119.088 24.3793 118.279 24.1423C117.474 23.9053 116.491 23.5477 115.328 23.0693C114.331 22.6468 113.446 22.307 112.672 22.0499C111.825 22.9687 111.063 23.6058 110.383 23.9635C109.704 24.3211 108.984 24.5 108.228 24.5C107.213 24.5 106.404 24.2675 105.796 23.8025C105.188 23.3331 104.884 22.7183 104.884 21.9605C104.884 21.3882 105.072 20.8651 105.447 20.3867C105.827 19.9106 106.359 19.535 107.039 19.26C107.723 18.9806 108.517 18.8398 109.418 18.8398C109.929 18.8398 110.316 18.8487 110.58 18.8666C114.186 14.3778 117.443 9.63634 120.353 4.64007C118.773 4.36735 117.163 4.22875 115.525 4.22875C113.401 4.22875 111.85 4.47465 110.866 4.96198C109.883 5.45155 109.391 6.22055 109.391 7.26898C109.391 7.57971 109.427 7.84797 109.498 8.07375C109.574 8.29506 109.686 8.55214 109.829 8.84275C109.994 9.17807 110.079 9.41503 110.079 9.5581C110.079 9.92919 109.909 10.2377 109.57 10.4881C109.23 10.734 108.839 10.8547 108.398 10.8547C107.933 10.8547 107.553 10.7183 107.263 10.4433C106.909 10.1349 106.628 9.70788 106.413 9.16466C106.203 8.61697 106.1 8.00222 106.1 7.32264C106.1 5.17212 106.994 3.58046 108.783 2.54768C110.571 1.51713 112.927 1.00073 115.856 1.00073C117.309 1.00073 118.793 1.08568 120.309 1.2511C121.829 1.41206 123.253 1.67808 124.583 2.04693C125.131 2.19671 125.497 2.40461 125.683 2.67286C125.866 2.93665 125.96 3.27867 125.96 3.70118C125.96 4.20192 125.83 4.59089 125.576 4.86362C125.318 5.13858 124.961 5.27495 124.502 5.27495H124.306C122.314 8.51861 120.295 11.6326 118.252 14.6192C116.611 16.9933 115.462 18.6028 114.801 19.4478C115.867 19.687 116.797 19.9083 117.59 20.1095C118.567 20.3733 119.354 20.5633 119.951 20.6818C120.552 20.8025 121.073 20.8606 121.516 20.8606C122.582 20.8606 123.497 20.6818 124.261 20.3241C125.023 19.962 125.748 19.383 126.434 18.5894C126.653 18.3345 126.901 18.2049 127.176 18.2049Z" fill="#004AAD"/>
<path d="M132.678 24.5C131.409 24.5 130.26 24.187 129.236 23.5611C128.216 22.9351 127.412 22.0298 126.822 20.8427C126.231 19.6579 125.936 18.2541 125.936 16.6311C125.936 13.8368 126.535 11.2459 127.734 8.86064C128.932 6.47092 130.698 4.55513 133.036 3.11102C135.372 1.66914 138.18 0.947083 141.459 0.947083C142.304 0.947083 143.212 1.01415 144.178 1.1438C145.143 1.26899 146.022 1.46124 146.816 1.71608C147.334 1.86586 147.593 2.23471 147.593 2.82488C147.593 3.30327 147.41 3.75259 147.048 4.1751C146.69 4.59984 146.272 4.80997 145.796 4.80997C145.646 4.80997 145.537 4.80103 145.465 4.78314C144.504 4.56407 143.686 4.40312 143.006 4.30028C142.327 4.19969 141.607 4.14827 140.851 4.14827C138.513 4.14827 136.526 4.71608 134.887 5.84723C133.246 6.98061 132.021 8.47614 131.212 10.336C130.401 12.196 129.996 14.2034 129.996 16.3539C129.996 17.9232 130.302 19.1348 130.917 19.9933C131.536 20.8472 132.343 21.272 133.34 21.272C134.46 21.272 135.444 20.8137 136.291 19.8949C137.136 18.9717 137.909 17.4784 138.607 15.415C139.309 13.3539 140.004 10.5551 140.69 7.01861C140.798 6.50669 141.015 6.15796 141.343 5.97241C141.676 5.7891 142.121 5.69522 142.675 5.69522C143.981 5.69522 144.634 6.11995 144.634 6.96496C144.634 7.11474 144.607 7.30028 144.553 7.51936C144.075 9.30326 143.637 11.2749 143.239 13.4389C142.845 15.6028 142.649 17.2481 142.649 18.3748C142.649 19.3651 142.794 20.0872 143.087 20.5387C143.384 20.9925 143.838 21.2183 144.446 21.2183C145.029 21.2183 145.591 21.0216 146.127 20.6281C146.664 20.2302 147.336 19.5506 148.148 18.5894C148.367 18.3345 148.615 18.2049 148.89 18.2049C149.127 18.2049 149.315 18.3167 149.453 18.5357C149.59 18.7571 149.659 19.0611 149.659 19.4478C149.659 20.1699 149.485 20.7421 149.14 21.1647C148.233 22.2511 147.348 23.0782 146.485 23.6505C145.62 24.2183 144.562 24.5 143.31 24.5C142.023 24.5 140.981 24.1289 140.19 23.3822C139.396 22.6378 138.898 21.5849 138.696 20.2258C137.337 23.076 135.33 24.5 132.678 24.5Z" fill="#004AAD"/>
<path d="M149.33 24.5C148.518 24.5 147.903 24.2809 147.488 23.8383C147.076 23.3979 146.871 22.8189 146.871 22.1036C146.871 21.2765 147.105 20.6148 147.577 20.1185C148.046 19.6177 148.706 19.3674 149.553 19.3674C150.362 19.3674 150.975 19.5686 151.386 19.9665C151.802 20.3599 152.012 20.9411 152.012 21.7101C152.012 22.5641 151.771 23.2437 151.288 23.7489C150.809 24.2496 150.157 24.5 149.33 24.5Z" fill="#004AAD"/>
</svg>
