<svg width="32" height="32" viewBox="0 0 32 32" fill="none" xmlns="http://www.w3.org/2000/svg">
<path d="M2.66602 28H29.3327" stroke="#3174CD" stroke-width="2.66667" stroke-linecap="round" stroke-linejoin="round"/>
<path d="M9.33398 17.3334H6.66732C5.93094 17.3334 5.33398 17.9303 5.33398 18.6667V26.6667C5.33398 27.4031 5.93094 28 6.66732 28H9.33398C10.0704 28 10.6673 27.4031 10.6673 26.6667V18.6667C10.6673 17.9303 10.0704 17.3334 9.33398 17.3334Z" stroke="#3174CD" stroke-width="2.66667" stroke-linejoin="round"/>
<path d="M8 22.6666H8.66667" stroke="#3174CD" stroke-width="2.66667" stroke-linecap="round" stroke-linejoin="round"/>
<path d="M25.3327 2.66663H11.9993C11.263 2.66663 10.666 3.26358 10.666 3.99996V26.6666C10.666 27.403 11.263 28 11.9993 28H25.3327C26.0691 28 26.666 27.403 26.666 26.6666V3.99996C26.666 3.26358 26.0691 2.66663 25.3327 2.66663Z" stroke="#3174CD" stroke-width="2.66667" stroke-linejoin="round"/>
<path d="M17.3327 6.66663H14.666V9.33329H17.3327V6.66663Z" fill="#3174CD"/>
<path d="M22.6667 6.66663H20V9.33329H22.6667V6.66663Z" fill="#3174CD"/>
<path d="M17.3327 11.3334H14.666V14H17.3327V11.3334Z" fill="#3174CD"/>
<path d="M22.6667 11.3334H20V14H22.6667V11.3334Z" fill="#3174CD"/>
<path d="M22.6667 16H20V18.6667H22.6667V16Z" fill="#3174CD"/>
<path d="M22.6667 20.6666H20V23.3333H22.6667V20.6666Z" fill="#3174CD"/>
</svg>
