<svg width="30" height="30" viewBox="0 0 30 30" fill="none" xmlns="http://www.w3.org/2000/svg">
<path d="M1.66602 28.2909C2.93236 28.2909 4.18412 28.4067 5.23726 27.5858C6.2691 26.7816 7.91007 26.8082 8.9014 27.6453C9.98242 28.558 12.023 28.5322 13.1285 27.6706C14.201 26.8346 15.8272 26.7383 16.9014 27.6453C18.0801 28.6405 20.0664 28.4984 21.2373 27.5858C22.2691 26.7816 23.9101 26.8082 24.9014 27.6453C25.8563 28.4515 27.159 28.2909 28.3327 28.2909" stroke="#3174CD" stroke-width="2" stroke-linecap="round" stroke-linejoin="round"/>
<path d="M9.66602 24.333C11.2629 21.1447 14.2476 18.9996 17.666 18.9996C21.0845 18.9996 24.0691 21.1447 25.666 24.333" stroke="#3174CD" stroke-width="2" stroke-linecap="round" stroke-linejoin="round"/>
<path d="M13.6673 19.1352C9.66732 18.3927 6.197 20.7818 4.33398 24.333" stroke="#3174CD" stroke-width="2" stroke-linecap="round" stroke-linejoin="round"/>
<path d="M15 18.9996C15 14.9996 16.0667 8.54626 20.3333 5.66626" stroke="#3174CD" stroke-width="2" stroke-linecap="round" stroke-linejoin="round"/>
<path d="M19.6672 1.66626C20.834 1.66626 22.0699 3.1292 20.3333 5.66626M20.3333 5.66626C21.3815 5.97768 24.6107 7.42562 24.3104 10.9996M20.3333 5.66626C19.553 4.72718 16.7502 3.53308 15 5.39973M20.3333 5.66626C21.1066 6.61189 21.6667 9.66626 20.3333 10.9996" stroke="#3174CD" stroke-width="2" stroke-linecap="round" stroke-linejoin="round"/>
</svg>
