<svg width="30" height="30" viewBox="0 0 30 30" fill="none" xmlns="http://www.w3.org/2000/svg">
<path d="M1.66406 28.2912C2.9304 28.2912 4.18217 28.407 5.23531 27.5862C6.26715 26.782 7.90812 26.8086 8.89945 27.6456C9.98047 28.5584 12.0211 28.5326 13.1266 27.6709C14.1991 26.835 15.8253 26.7386 16.8994 27.6456C18.0781 28.6409 20.0644 28.4988 21.2353 27.5862C22.2671 26.782 23.9081 26.8086 24.8994 27.6456C25.8543 28.4519 27.157 28.2912 28.3307 28.2912" stroke="#3174CD" stroke-width="2" stroke-linecap="round" stroke-linejoin="round"/>
<path d="M1.66406 22.9579C2.9304 22.9579 4.18217 23.0737 5.23531 22.2528C6.26715 21.4486 7.90812 21.4752 8.89945 22.3122C9.98047 23.225 12.0211 23.1992 13.1266 22.3376C14.1991 21.5016 15.8253 21.4053 16.8994 22.3122C18.0781 23.3075 20.0644 23.1654 21.2353 22.2528C22.2671 21.4486 23.9081 21.4752 24.8994 22.3122C25.8543 23.1185 27.157 22.9579 28.3307 22.9579" stroke="#3174CD" stroke-width="2" stroke-linecap="round" stroke-linejoin="round"/>
<path d="M1.66406 17.6666H28.3307" stroke="#3174CD" stroke-width="2" stroke-linecap="round" stroke-linejoin="round"/>
<path d="M7 17.6667V3M7 3C6.66667 3.88889 5.4 6.33333 3 6.33333M7 3C7.33333 3.88889 8.6 6.33333 11 6.33333M3 10.3333C5.4 10.3333 6.66667 7.88889 7 7C7.33333 7.88889 8.6 10.3333 11 10.3333" stroke="#3174CD" stroke-width="2" stroke-linecap="round" stroke-linejoin="round"/>
<circle cx="22.3333" cy="4.99996" r="3.33333" stroke="#3174CD" stroke-width="2" stroke-linecap="round" stroke-linejoin="round"/>
</svg>
