<svg width="30" height="24" viewBox="0 0 30 24" fill="none" xmlns="http://www.w3.org/2000/svg">
<path d="M7.00977 12.0004L6.99779 12.0004" stroke="#3174CD" stroke-width="2.66667" stroke-linecap="round" stroke-linejoin="round"/>
<path d="M13.666 17.3895C14.284 17.5933 14.8762 17.8282 15.4126 18.2037M15.4126 18.2037C16.8002 19.1751 17.666 20.769 17.666 22.5131C17.666 22.5983 17.5946 22.6675 17.5085 22.6671C13.6191 22.6498 11.8773 21.9914 11.1452 20.9047L9.66602 18.4762C6.34399 17.8053 3.29039 15.6837 1.66602 12.1115C5.66602 3.31492 18.3327 3.31492 22.3327 12.1115M15.4126 18.2037C18.3062 17.3234 20.8861 15.2926 22.3327 12.1115M15.4126 6.01934C16.8002 5.04793 17.666 3.45406 17.666 1.70998C17.666 0.60787 11.9216 2.16581 11.1452 3.31835L9.66602 5.74683M22.3327 12.1115C22.7771 11.2318 25.1327 8.15303 28.3327 8.15303C27.2216 9.25261 25.3993 13.431 26.9993 16.0699C25.3993 16.0699 22.9993 12.9911 22.3327 12.1115Z" stroke="#3174CD" stroke-width="2" stroke-linecap="round" stroke-linejoin="round"/>
</svg>
